<?xml version="1.0" standalone="no"?>
<!DOCTYPE svg PUBLIC "-//W3C//DTD SVG 1.1//EN" "http://www.w3.org/Graphics/SVG/1.1/DTD/svg11.dtd">
<svg width="100%" height="100%" viewBox="0 0 900 900" version="1.1" xmlns="http://www.w3.org/2000/svg" xmlns:xlink="http://www.w3.org/1999/xlink" xml:space="preserve" style="fill-rule:evenodd;clip-rule:evenodd;stroke-linecap:round;stroke-linejoin:round;stroke-miterlimit:1.41421;">
    <g id="Compass" transform="matrix(1,0,0,1,-190,50)">
        <g transform="matrix(4.29194,0,3.69779e-32,4.29194,-1806.74,486.442)">
            <circle cx="570.078" cy="-20.141" r="69.898" style="fill:rgb(228,223,207);stroke-width:7.86px;stroke:rgb(131,121,89);"/>
        </g>
        <g transform="matrix(0.279971,-0.279971,0.279971,0.279971,639.208,361.684)">
            <path d="M429.862,-396.25C429.862,-413.239 416.069,-427.032 399.08,-427.032L337.518,-427.032C320.529,-427.032 306.737,-413.239 306.737,-396.25L306.737,-334.688C306.737,-317.699 320.529,-303.907 337.518,-303.907L399.08,-303.907C416.069,-303.907 429.862,-317.699 429.862,-334.688L429.862,-396.25Z" style="fill:rgb(131,121,89);fill-opacity:0.25098;"/>
        </g>
        <g transform="matrix(0.279971,-0.279971,0.279971,0.279971,395.458,605.434)">
            <path d="M429.862,-396.25C429.862,-413.239 416.069,-427.032 399.08,-427.032L337.518,-427.032C320.529,-427.032 306.737,-413.239 306.737,-396.25L306.737,-334.688C306.737,-317.699 320.529,-303.907 337.518,-303.907L399.08,-303.907C416.069,-303.907 429.862,-317.699 429.862,-334.688L429.862,-396.25Z" style="fill:rgb(131,121,89);fill-opacity:0.25098;"/>
        </g>
        <g transform="matrix(0.279971,-0.279971,0.279971,0.279971,882.958,605.434)">
            <path d="M429.862,-396.25C429.862,-413.239 416.069,-427.032 399.08,-427.032L337.518,-427.032C320.529,-427.032 306.737,-413.239 306.737,-396.25L306.737,-334.688C306.737,-317.699 320.529,-303.907 337.518,-303.907L399.08,-303.907C416.069,-303.907 429.862,-317.699 429.862,-334.688L429.862,-396.25Z" style="fill:rgb(131,121,89);fill-opacity:0.25098;"/>
        </g>
        <g transform="matrix(0.279971,-0.279971,0.279971,0.279971,639.208,849.184)">
            <path d="M429.862,-396.25C429.862,-413.239 416.069,-427.032 399.08,-427.032L337.518,-427.032C320.529,-427.032 306.737,-413.239 306.737,-396.25L306.737,-334.688C306.737,-317.699 320.529,-303.907 337.518,-303.907L399.08,-303.907C416.069,-303.907 429.862,-317.699 429.862,-334.688L429.862,-396.25Z" style="fill:rgb(131,121,89);fill-opacity:0.25098;"/>
        </g>
        <g transform="matrix(-1.44115e-16,-0.274112,0.274112,-1.15292e-16,567.822,328.598)">
            <path d="M429.862,-396.25C429.862,-413.239 416.069,-427.032 399.08,-427.032L337.518,-427.032C320.529,-427.032 306.737,-413.239 306.737,-396.25L306.737,-334.688C306.737,-317.699 320.529,-303.907 337.518,-303.907L399.08,-303.907C416.069,-303.907 429.862,-317.699 429.862,-334.688L429.862,-396.25Z" style="fill:rgb(131,121,89);fill-opacity:0.25098;"/>
        </g>
        <g transform="matrix(-8.64693e-17,-0.274112,0.274112,-8.64693e-17,912.537,673.312)">
            <path d="M429.862,-396.25C429.862,-413.239 416.069,-427.032 399.08,-427.032L337.518,-427.032C320.529,-427.032 306.737,-413.239 306.737,-396.25L306.737,-334.688C306.737,-317.699 320.529,-303.907 337.518,-303.907L399.08,-303.907C416.069,-303.907 429.862,-317.699 429.862,-334.688L429.862,-396.25Z" style="fill:rgb(131,121,89);fill-opacity:0.25098;"/>
        </g>
        <g transform="matrix(3.21896,0,-3.33067e-16,3.21896,-1195.06,464.832)">
            <circle cx="570.078" cy="-20.141" r="69.898" style="fill:none;stroke-width:10.48px;stroke:rgb(228,223,207);"/>
        </g>
    </g>
    <g id="Carrot Leaves" transform="matrix(0.707107,0.707107,-0.707107,0.707107,284.445,-289.854)">
        <g transform="matrix(0.75,5.55112e-17,-5.55112e-17,0.75,160.055,64.0227)">
            <path d="M701.322,689.886L724.194,775.246C726.515,783.909 721.367,792.827 712.704,795.148L681.311,803.56C672.648,805.881 663.73,800.733 661.409,792.07L650,749.491L638.591,792.07C636.27,800.733 627.352,805.881 618.689,803.56L587.296,795.148C578.633,792.827 573.485,783.909 575.806,775.246L598.678,689.886L561.889,726.675C557.498,731.066 550.369,731.066 545.979,726.675L530.069,710.765C525.679,706.375 525.679,699.246 530.069,694.855L617.5,607.425L617.5,601.25C617.5,592.281 624.781,585 633.75,585L666.25,585C675.219,585 682.5,592.281 682.5,601.25L682.5,607.425L769.931,694.855C774.321,699.246 774.321,706.375 769.931,710.765L754.021,726.675C749.631,731.066 742.502,731.066 738.111,726.675L701.322,689.886Z" style="fill:rgb(103,169,60);"/>
        </g>
        <g transform="matrix(0.75,5.55112e-17,-5.55112e-17,0.75,160.055,64.0227)">
            <path d="M650,585L666.25,585C675.219,585 682.5,592.281 682.5,601.25L682.5,607.425L769.931,694.855C774.321,699.246 774.321,706.375 769.931,710.765L754.021,726.675C749.631,731.066 742.502,731.066 738.111,726.675L701.322,689.886L724.194,775.246C726.515,783.909 721.367,792.827 712.704,795.148L681.311,803.56C672.648,805.881 663.73,800.733 661.409,792.07L650,749.491L650,585Z" style="fill:rgb(51,135,43);"/>
        </g>
    </g>
    <g id="Carrot Root" transform="matrix(0.707107,0.707107,-0.707107,0.707107,284.445,-289.854)">
        <g transform="matrix(0.75,5.55112e-17,-5.55112e-17,0.75,161.69,68.7975)">
            <path d="M647.821,90C614.487,90 531.154,456.667 547.821,530C562.595,595.009 733.046,595.009 747.821,530C764.487,456.667 681.154,90 647.821,90Z" style="fill:none;stroke-width:25px;stroke:rgb(228,223,207);"/>
            <path d="M647.821,90C614.487,90 531.154,456.667 547.821,530C562.595,595.009 733.046,595.009 747.821,530C764.487,456.667 681.154,90 647.821,90Z" style="fill:rgb(255,164,94);"/>
        </g>
        <g transform="matrix(0.75,5.55112e-17,-5.55112e-17,0.75,160.055,64.0227)">
            <path d="M650,585.123L650,96.366C683.335,96.372 766.667,463.034 750,536.366C742.613,568.871 696.306,585.123 650,585.123Z" style="fill:rgb(245,138,56);"/>
        </g>
    </g>
</svg>
