<?xml version="1.0" encoding="UTF-8" standalone="no"?>
<svg
   xmlns:dc="http://purl.org/dc/elements/1.1/"
   xmlns:cc="http://creativecommons.org/ns#"
   xmlns:rdf="http://www.w3.org/1999/02/22-rdf-syntax-ns#"
   xmlns:svg="http://www.w3.org/2000/svg"
   xmlns="http://www.w3.org/2000/svg"
   style="shape-rendering:crispEdges"
   id="svg2"
   width="796.42108pt"
   viewBox="0 0 796.42108 592.20477"
   version="1.1"
   height="592.20477pt"
   enable-background="new 0 0 792 612">
  <metadata
     id="metadata23577">
    <rdf:RDF>
      <cc:Work
         rdf:about="">
        <dc:format>image/svg+xml</dc:format>
        <dc:type
           rdf:resource="http://purl.org/dc/dcmitype/StillImage" />
        <dc:title></dc:title>
      </cc:Work>
    </rdf:RDF>
  </metadata>
  <defs
     id="defs23575" />
  <g
     style="display:inline"
     transform="translate(15.43939,-0.4227971)"
     id="layer1">
    <g
       transform="matrix(1.0410272,0,0,1.0410272,-27.427788,-13.783462)"
       id="g62714"
       style="shape-rendering:crispEdges">
      <g
         id="Layers-3">
        <g
           id="orcntypoly">
          <clipPath
             id="SVG_CP_1-1">
            <path
               d="M 0,612 0,0 792,0 792,612 0,612 Z"
               id="path7-9" />
          </clipPath>
          <path
             style="fill:none;stroke:#6e6e6e;stroke-width:3;stroke-linecap:round;stroke-linejoin:round;stroke-miterlimit:10"
             clip-path="url(#SVG_CP_1-1)"
             d="m 103.20777,482.92643 c -0.92445,5.20928 1.35999,5.98515 2.88022,4.0804 1.92601,3.49622 11.92871,-0.70757 11.52087,3.84037 2.21564,1.36545 7.46755,2.57288 9.84074,2.1602 2.90219,-1.39156 4.39941,-1.35755 6.96052,-2.64025 1.14029,-2.39618 1.85771,-1.13814 4.80036,-0.48005 3.51184,-0.89983 7.53239,-0.4405 7.9206,3.1203 2.81171,2.74258 0.87886,10.88656 1.20009,15.6015 0.53287,23.92792 -0.15696,48.38382 0,72.24695 -15.31147,0.89953 -31.70024,0.19347 -46.56351,0.96009 -5.074094,-0.20102 -8.983465,1.12224 -9.60072,-2.40023 -1.336375,-2.15867 -0.523931,-5.63644 0.72006,-7.68074 1.454727,-3.8328 -3.010209,-5.65573 -2.40019,-8.4008 3.37398,-1.3632 4.183198,-3.58918 3.36026,-7.44072 2.455006,-1.82303 3.059965,-3.85264 0.72005,-5.52053 -1.258549,-3.58313 -3.366231,-5.83584 -3.36025,-8.88085 -4.141812,-0.26282 -2.041066,-5.50787 -7.20054,-3.84037 -1.743742,-2.57771 -5.788806,-0.3217 -9.36071,-1.44014 -1.861687,-1.78501 -1.991368,-5.1027 0.72006,-6.48062"
             id="path9-9" />
          <path
             style="fill:none;stroke:#6e6e6e;stroke-width:3;stroke-linecap:round;stroke-linejoin:round;stroke-miterlimit:10"
             clip-path="url(#SVG_CP_1-1)"
             d="m 75.36568,529.73094 c 0.744263,-1.80826 0.863371,-3.70955 1.20009,-5.76056 0.294252,-3.05781 -1.676792,-6.89071 3.36025,-4.80046 2.89441,-1.18651 6.65907,1.50322 8.64065,-2.40023 -0.972433,-2.04302 2.437395,-4.11152 1.68013,-6.48062 1.23248,-3.5371 4.696899,-5.0715 2.6402,-8.88086 5.97277,-7.57885 6.963179,-13.69943 10.32077,-18.48178"
             id="path11-7" />
          <path
             style="fill:none;stroke:#6e6e6e;stroke-width:3;stroke-linecap:round;stroke-linejoin:round;stroke-miterlimit:10"
             clip-path="url(#SVG_CP_1-1)"
             d="m 40.80307,461.08433 c 5.867907,0.18111 12.914021,-1.18456 14.88112,2.88028 2.083074,1.90376 1.361497,4.14235 4.08031,5.52053 1.859105,0.76536 5.75975,5.14693 3.12024,7.68074 -2.368503,1.66556 -0.478503,8.05771 -0.24002,11.28109 3.598834,0.0184 -0.628121,12.77651 3.60027,7.68073 2.743406,-1.49692 8.306851,-0.17381 11.04083,-1.68016 2.133219,-1.38708 2.773858,-4.26674 5.52042,-5.04048 1.321649,-2.16196 0.132439,-7.33237 5.52041,-5.52053 2.480485,-1.88012 7.081922,-1.39358 9.12069,-2.88028 2.049774,1.26887 5.04279,1.94095 5.52041,2.40023 -3.435894,4.96221 -3.787649,9.62056 -9.12068,16.56159 -1.217419,3.57927 0.544146,6.1527 -2.88022,8.16079 -1.019316,3.70127 -0.917583,4.92045 -2.88022,7.92076 1.140818,2.42808 -4.330577,4.02094 -6.24047,2.64025 -2.837697,0.88885 -7.407926,-1.53543 -5.04038,3.1203 -0.277214,3.1628 -0.601015,5.34818 -1.4401,8.16079 -4.314816,2.02346 -1.765669,8.26699 4.32032,6.48062 2.321941,-0.14927 3.148523,0.0717 5.76044,1.44014 3.860454,-1.47457 2.236815,4.23214 6.48048,4.32042 -1.396521,3.06046 2.682642,5.85399 2.88022,8.88085 4.689142,2.32885 -3.604718,3.88853 -0.48004,8.16078 0.158986,3.04896 -7.208238,4.32508 -2.40018,6.96067 1.801694,3.48475 1.129763,7.01525 -0.96007,9.84095 1.818146,2.01754 0.06407,2.91975 1.92015,4.08039"
             id="path13-1" />
          <path
             style="fill:none;stroke:#6e6e6e;stroke-width:3;stroke-linecap:round;stroke-linejoin:round;stroke-miterlimit:10"
             clip-path="url(#SVG_CP_1-1)"
             d="m 92.887,580.13578 c 2.611936,3.17065 -7.010497,1.03864 -10.32078,1.68016 -12.374026,-0.17123 -25.88562,0.16333 -37.2028,-0.96009 -4.197437,-4.80602 -10.188077,-9.1719 -8.64065,-17.76171 -1.192182,-5.96627 -6.70557,-8.72724 -4.56035,-16.56159 -1.10231,-2.16662 -2.306437,-7.18616 -1.20009,-10.56101 0.06108,-6.17604 -6.276847,-5.693 -6.7205,-11.28109 -0.544403,-5.9441 4.322399,-6.55948 5.28039,-11.28108 2.118289,-1.6041 4.813709,-1.69566 2.88022,-5.28051 1.366361,-3.60994 0.04822,-4.25385 -2.88022,-5.04049 -4.444292,-1.39772 -1.576114,-8.10647 -5.28039,-9.84094 -1.2637,-4.16622 -10.63648,-0.18794 -12.00091,-5.52053 -2.019606,-5.64478 2.775765,-9.66083 4.56035,-13.92134 1.968161,-3.51693 3.898416,-7.45814 7.44056,-9.3609 1.069528,-6.36111 11.991274,-1.74429 16.56124,-3.36033"
             id="path15-2" />
          <path
             style="fill:none;stroke:#6e6e6e;stroke-width:3;stroke-linecap:round;stroke-linejoin:round;stroke-miterlimit:10"
             clip-path="url(#SVG_CP_1-1)"
             d="m 227.53714,455.80383 c 5.83194,-0.63151 11.01283,-0.61197 8.88066,6.72064 -0.38593,38.92812 -0.3655,78.70717 -0.72005,117.85133 -24.89222,-0.39056 -50.22504,1.21806 -75.60569,0.24003 -3.28297,-1.55677 -9.87546,1.90468 -11.76089,-0.96009 -0.15205,-23.40984 0.53517,-47.54704 0,-71.04684 1.10139,-5.02319 -1.18903,-12.87036 0.96007,-16.32157 2.33119,-1.1091 3.10042,-3.78015 6.24047,-4.08039 1.18416,-4.19708 8.8564,-0.0494 13.44101,-1.44014 1.73499,-1.46527 4.74796,-1.65256 6.72051,-2.88027 4.76433,0.84532 7.64452,-1.00062 11.76089,-0.48005"
             id="path17-0" />
          <path
             style="fill:none;stroke:#6e6e6e;stroke-width:3;stroke-linecap:round;stroke-linejoin:round;stroke-miterlimit:10"
             clip-path="url(#SVG_CP_1-1)"
             d="m 187.45412,483.40648 c 3.39254,0.37479 1.30892,-7.05862 5.04038,-6.00058 2.33543,1.55059 2.44355,-3.5233 5.28039,-3.1203 0.3389,-2.94138 2.88997,-3.67058 5.52042,-4.32041 0.10134,-2.75616 4.39058,-0.57885 4.56034,-3.1203 1.74144,-2.3389 3.77469,-4.38598 8.40064,-3.84037 4.48711,0.56679 5.01869,-2.82196 7.20054,-4.56044 1.21926,-0.82324 1.80772,-2.9705 4.08031,-2.64025"
             id="path19-3" />
          <path
             style="fill:none;stroke:#6e6e6e;stroke-width:3;stroke-linecap:round;stroke-linejoin:round;stroke-miterlimit:10"
             clip-path="url(#SVG_CP_1-1)"
             d="m 60.24454,377.5563 c 9.389254,0.12026 19.296419,0.10265 28.32213,0.48005 0.842443,4.88764 -2.951794,14.18565 5.04038,11.52111 1.177175,4.26854 -2.448047,13.49652 5.2804,11.04106 0.537037,7.09523 -0.724458,15.56225 0.48003,22.08212 5.09363,-1.2533 5.63569,2.04498 5.04038,6.48063 -0.42614,4.91359 1.54313,12.03729 -0.72005,15.6015 -8.161067,-2.56767 -2.35094,8.81841 -5.52042,11.04106 -7.873645,-1.95687 -3.389647,8.723 -4.56034,13.68131 -0.580428,4.79471 1.154613,8.54147 0.48004,12.72123 -3.868378,0.20698 -6.07617,2.03564 -10.32078,2.1602 1.073312,5.79373 -4.000403,5.44044 -5.04038,9.12088 -1.444753,2.63557 -7.147515,1.01313 -10.08076,2.16021 -2.878442,0.91495 -5.287847,3.42958 -4.56034,-2.16021 1.430759,-5.27112 -3.028415,-4.6523 -1.92015,-9.60092 -1.090792,-3.68868 -0.236786,-6.36137 1.68013,-8.16079 -0.312934,-5.30064 -4.720878,-5.59444 -6.72051,-9.12087 0.07501,-1.95374 -3.141114,-4.19195 -5.04038,-5.52054 -8.882842,-0.16754 -17.35978,0.39962 -26.40199,0.24003 1.664236,-6.37199 5.945873,-14.31871 2.6402,-19.92192 0.600068,-5.5407 6.879449,-8.54573 5.04038,-15.36147 0.853108,-4.48536 0.791499,-5.16934 -0.72005,-8.88086 -0.351868,-6.26603 3.035353,-8.45091 6.24047,-11.76113 5.313593,-2.69249 4.91237,-9.30246 7.9206,-14.64141 0.07835,-1.82781 0.983398,-2.90242 1.20009,-4.80046"
             id="path21-3" />
          <path
             style="fill:none;stroke:#6e6e6e;stroke-width:3;stroke-linecap:round;stroke-linejoin:round;stroke-miterlimit:10"
             clip-path="url(#SVG_CP_1-1)"
             d="m 48.00362,385.95711 c 1.208937,-5.0728 1.320351,-11.5938 9.60072,-8.40081 0.880067,0 1.760133,0 2.6402,0"
             id="path23-0" />
          <path
             style="fill:none;stroke:#6e6e6e;stroke-width:3;stroke-linecap:round;stroke-linejoin:round;stroke-miterlimit:10"
             clip-path="url(#SVG_CP_1-1)"
             d="m 311.54346,376.83623 c 4.08198,0.63839 10.79495,-1.35421 12.96098,1.20012 -0.31884,10.4822 0.6342,22.23628 -0.48004,31.92307 -2.22908,4.97161 -0.32836,14.07301 -0.96007,20.64198 0.25181,18.91951 -0.82771,39.12884 0.24002,56.88547 14.47623,-0.0492 29.96548,-0.13358 42.96323,0.72007 0.0176,31.3454 0.40853,62.31751 0.24002,93.84903 -16.72749,0.48686 -33.279,-1.00926 -50.4038,-0.24003 -17.54728,-0.44034 -35.1408,-0.82995 -52.80397,-0.96009"
             id="path25-6" />
          <path
             style="fill:none;stroke:#6e6e6e;stroke-width:3;stroke-linecap:round;stroke-linejoin:round;stroke-miterlimit:10"
             clip-path="url(#SVG_CP_1-1)"
             d="m 263.29983,580.85585 c -9.04431,-0.51017 -19.2131,0.018 -27.60208,-0.96009 0.34253,-43.36854 0.45765,-87.04436 0.72005,-130.33253 -0.12309,-5.16349 8.53533,-1.54547 12.48094,-2.64026 4.40502,-0.23064 7.00499,0.99679 5.2804,-2.1602 0.59163,-2.84555 2.08918,-7.51293 3.12024,-9.12088 0.50366,-3.11756 2.29449,-5.4787 1.92014,-7.92076 2.66046,-1.4963 4.31071,-3.82745 5.2804,-5.76056 -1.33299,-2.5277 -3.92474,-3.76317 -2.16016,-6.2406 -1.12466,-1.59655 -1.11039,-7.02203 -2.40018,-6.48062 -3.52409,-2.8382 -2.78153,-5.66615 -6.00046,-8.40081 -1.84403,0.52357 -4.30869,-1.78366 -5.52041,-2.64025 2.14254,-1.33053 2.23586,-4.74669 1.68012,-7.92076 -3.15138,-1.84704 1.27986,-6.61506 2.88022,-8.16079 3.59759,-0.21841 3.75579,-2.76706 7.68058,-4.08039"
             id="path27-2" />
          <path
             style="fill:none;stroke:#6e6e6e;stroke-width:3;stroke-linecap:round;stroke-linejoin:round;stroke-miterlimit:10"
             clip-path="url(#SVG_CP_1-1)"
             d="m 260.65963,378.03635 c 5.95537,-2.60653 18.15185,-0.55154 26.64201,-1.20012 8.08061,0 16.16121,0 24.24182,0"
             id="path29-6" />
          <path
             style="fill:none;stroke:#6e6e6e;stroke-width:3;stroke-linecap:round;stroke-linejoin:round;stroke-miterlimit:10"
             clip-path="url(#SVG_CP_1-1)"
             d="m 357.62693,376.83623 c 18.48808,0.22094 37.38193,-0.32227 55.44418,0.24003 13.82428,0.65194 29.88094,0.43533 44.64336,0.48004 0.20657,18.46818 0.79506,37.63973 -0.48004,55.20531 -6.2544,-0.26906 -1.07759,10.05846 -2.6402,14.40139 -0.3533,7.00739 0.97713,15.69852 -1.20009,20.882 0.63654,6.16411 -1.27501,14.87631 0.96008,19.44187 17.743,0.0617 34.94031,-0.42235 52.80397,-0.24002 -0.0331,31.83341 -0.1099,63.39551 0.48004,94.80912 -16.52766,-0.43497 -33.36366,-0.10505 -49.92376,-0.48005"
             id="path31-9" />
          <path
             style="fill:none;stroke:#6e6e6e;stroke-width:3;stroke-linecap:round;stroke-linejoin:round;stroke-miterlimit:10"
             clip-path="url(#SVG_CP_1-1)"
             d="m 457.71447,581.57592 c -25.6921,0.89116 -51.72262,0.72378 -77.52584,0.48005 -4.3239,-0.55648 -10.92158,1.16083 -13.68103,-0.9601 0.0192,-31.30223 0.0673,-62.63333 -0.48004,-93.36897 -14.02591,0.2642 -28.48538,-0.61779 -43.20325,-0.24003 0.0197,-25.44745 0.34261,-51.61421 0.24002,-77.52745 3.23742,-1.96307 0.5849,-9.81608 1.44011,-14.16136 0.63767,-6.00296 -1.27538,-14.55664 0.96007,-18.96183 10.68602,0.2145 21.99838,-0.32727 32.16242,0"
             id="path33-9" />
          <path
             style="fill:none;stroke:#6e6e6e;stroke-width:3;stroke-linecap:round;stroke-linejoin:round;stroke-miterlimit:10"
             clip-path="url(#SVG_CP_1-1)"
             d="m 93.36703,334.59217 c 5.831089,0.0404 11.20215,-0.31734 15.36116,1.68016 0.0124,2.55558 5.65762,0.41536 3.60027,5.28051 4.8591,-1.41882 2.4526,4.42796 7.44056,2.88028 2.28996,1.03586 -0.75031,7.10475 4.56034,4.80046 2.39131,0.56893 1.76586,4.15462 6.24047,2.64025 3.93832,0.13155 7.93036,-0.40998 7.44056,3.84037 5.97537,0.93567 14.49909,-0.9991 18.96143,1.20012 0.60225,6.83846 -1.24076,16.12217 0.96007,21.36205 5.07129,-0.43088 -1.77081,11.05163 5.52042,8.40081 9.87881,0.22288 21.3317,-1.9231 30.24228,0 1.08514,4.75539 -3.24319,14.92425 4.56034,12.96125 16.97025,-0.29857 36.62582,-1.09483 52.32394,0.24002 2.92348,0.91205 4.09356,1.72988 6.48049,4.56044 -0.62179,2.68809 3.44362,4.98407 3.84029,6.00058 1.21533,2.31513 0.36644,4.65438 1.44011,6.2406 -2.36349,2.99932 5.49754,4.72481 0.48003,7.92076 -1.06365,1.71642 -4.25509,2.61988 -4.08031,5.76055 0.2081,2.17296 -2.44483,5.15408 -2.16016,7.44072 -0.92256,2.60602 -4.36084,7.41245 -1.20009,9.12087 -6.06829,0.49221 -14.04263,-0.92163 -18.96143,0.72007 0.0698,4.47017 1.33472,10.1355 -5.04038,8.16079 -5.08196,-0.92163 -6.98039,1.34028 -8.88066,3.60034 -1.32376,2.67657 -4.03896,3.9617 -8.16062,3.84037 -4.8141,-0.81377 -4.93186,3.0688 -7.44056,4.56044 -1.19188,0.90957 -4.01615,0.89736 -4.80036,2.64025 -0.48004,0 -0.96007,0 -1.44011,0"
             id="path35-0" />
          <path
             style="fill:none;stroke:#6e6e6e;stroke-width:3;stroke-linecap:round;stroke-linejoin:round;stroke-miterlimit:10"
             clip-path="url(#SVG_CP_1-1)"
             d="m 200.65511,470.44523 c -1.71815,1.80216 -3.6457,3.39492 -5.04038,5.52054 -1.92457,1.67359 -2.26931,1.96983 -5.04038,1.44013 -0.48952,4.39453 -1.52819,7.00018 -7.20054,5.76056 -2.67794,2.19988 -9.90639,-0.86728 -11.28085,2.64025 -4.91388,1.24673 -10.99759,1.07988 -16.56125,0.48005 0.43093,3.71121 -4.33485,2.22571 -4.80036,5.04048 -1.49826,1.70118 -4.66959,2.50599 -4.56034,-0.96009 -3.14277,-1.84399 -8.49338,0.51123 -10.80082,-1.92018 -0.60021,3.05934 -5.2532,2.87708 -4.56034,3.1203 -3.36121,2.35936 -5.48886,1.44686 -10.08076,0.72006 -4.07979,-0.8432 -3.11789,-4.76184 -9.12068,-3.84036 -3.68952,1.35635 -5.13948,-2.06402 -6.48049,-1.44014 -2.8639,5.97006 -0.62073,-6.84996 -3.36026,-3.60035 -1.86906,-1.92999 -5.154578,-3.14999 -7.20054,-1.20011 -1.359713,-7.77906 -0.847684,-17.25945 -0.96007,-26.40254 6.001247,1.86839 6.084209,-2.73542 5.52042,-7.68074 -1.317816,-6.05009 8.54512,-0.85405 5.52041,-8.40081 -0.68743,-5.39315 0.85707,-13.01822 -1.20009,-17.04164 -7.336247,1.96471 -3.960606,-7.49432 -4.32032,-12.00115 -0.374003,-5.30443 1.39039,-11.8408 -5.2804,-10.56102 -0.337414,-4.78129 2.160746,-13.19261 -5.2804,-10.32099 -0.920297,-4.6002 2.942897,-13.98389 -4.56034,-12.00115 -11.235509,-0.22825 -24.422432,0.20601 -33.84255,-0.9601 -0.05688,-5.54678 0.0599,-9.55672 2.40018,-13.20127 1.200063,-6.09043 2.048649,-12.3051 3.12023,-18.48177 8.80356,-0.45799 18.222897,0.61546 26.16197,-0.48005 3.240617,1.7791 0.217301,-5.29407 4.08031,-3.84037 1.506228,-1.86846 4.409705,-2.53981 5.76043,-4.56044"
             id="path37-6" />
          <path
             style="fill:none;stroke:#6e6e6e;stroke-width:3;stroke-linecap:round;stroke-linejoin:round;stroke-miterlimit:10"
             clip-path="url(#SVG_CP_1-1)"
             d="m 91.6869,336.27233 c 1.230505,0.19569 0.493277,-1.85001 1.68013,-1.68016"
             id="path39-5" />
          <path
             style="fill:none;stroke:#6e6e6e;stroke-width:3;stroke-linecap:round;stroke-linejoin:round;stroke-miterlimit:10"
             clip-path="url(#SVG_CP_1-1)"
             d="m 558.52206,321.3909 c 9.06154,-0.10086 18.09638,-0.17502 25.92195,0.9601 9.28167,0.31905 19.8417,-0.64025 28.32213,0.48004 0.1231,28.12579 -0.84448,55.16089 -0.48003,83.52803 1.33277,19.15063 -0.53449,40.47988 0.48003,60.00577 2.17855,3.26197 0.36414,10.5169 0.96008,15.36148 0.22381,21.68113 -0.21787,44.14023 0.72005,65.04625 2.71393,2.32655 0.44531,9.63565 1.20009,13.92134 -0.43156,6.7482 0.96635,15.40683 -0.96007,20.88201 -28.47522,0.48299 -57.01062,0.99834 -85.68645,0.48005"
             id="path41-8" />
          <path
             style="fill:none;stroke:#6e6e6e;stroke-width:3;stroke-linecap:round;stroke-linejoin:round;stroke-miterlimit:10"
             clip-path="url(#SVG_CP_1-1)"
             d="m 528.99984,582.05597 c -6.84268,-0.51788 -15.74226,1.02114 -21.36161,-0.72007 -0.61453,-31.15645 -0.49804,-62.50477 -0.48004,-94.08905 -18.18572,-0.18436 -35.68667,0.31604 -53.76405,0.24002 0.46497,-7.85582 -1.13067,-17.77225 1.20009,-23.76228 0.36208,-10.19639 -0.62419,-21.62807 0.24002,-30.96298 5.70263,0.47333 1.67324,-8.98522 3.12024,-12.96124 0.25362,-17.40166 -0.5527,-36.59092 0.24001,-53.52515 5.72356,0.0431 13.1434,1.78245 10.5608,-6.48062 0.77956,-8.79422 -0.48584,-19.03916 0.72005,-27.12261 29.44886,-0.21765 59.54583,0.62659 88.56667,-0.48005 0.31686,-3.40819 -0.63596,-8.20815 0.48004,-10.80104"
             id="path43-3" />
          <path
             style="fill:none;stroke:#6e6e6e;stroke-width:3;stroke-linecap:round;stroke-linejoin:round;stroke-miterlimit:10"
             clip-path="url(#SVG_CP_1-1)"
             d="m 192.01446,289.94788 c 3.02372,0.53694 7.03773,2.14784 10.5608,3.1203 -0.48498,3.56657 7.35765,2.34371 6.96052,4.80046 4.08359,-1.9727 6.26415,2.14113 10.56079,0.96009 2.38865,0.5302 6.20234,0.48848 8.40064,1.44014 2.56354,-1.4486 4.11853,-2.9232 3.60027,-5.52053 12.94424,0.32457 24.54839,-0.31675 36.48275,-0.72007 6.70836,-0.48451 14.48334,-2.45241 14.40108,4.56044 -0.8091,2.37737 0.66741,4.60464 0.48004,6.96067 -1.06358,1.60484 -0.20611,3.73869 0.48003,6.00058 0.6977,4.76621 -2.89311,8.65974 -6.00045,11.04106 2.59881,3.0549 -0.5239,6.46982 -0.48004,8.40081 -2.49542,1.10819 -1.89197,5.07301 -2.64019,7.20069 -1.605,2.56358 -4.73147,-1.15145 -6.24047,1.68016 0.58015,1.7486 -2.29175,4.50462 -3.60028,6.00058 -0.66166,2.06703 0.45439,5.76669 0.48004,7.20069 0.88509,3.82783 0.13775,5.45485 -0.96007,8.16078 1.43799,3.07481 0.0373,6.64021 -0.48004,10.321 -0.42657,2.29386 3.68281,5.09091 -1.44011,3.84037 -0.45241,3.64757 -6.55169,3.92872 -7.20054,6.2406 -3.91439,0.39689 -6.76959,4.86076 -6.24047,8.4008 1.59282,-0.008 1.37714,1.27889 1.44011,2.16021"
             id="path45-1" />
          <path
             style="fill:none;stroke:#6e6e6e;stroke-width:3;stroke-linecap:round;stroke-linejoin:round;stroke-miterlimit:10"
             clip-path="url(#SVG_CP_1-1)"
             d="m 250.57887,392.19771 c -0.21397,3.09656 -1.23354,4.96799 -1.68013,6.72065 3.49482,0.62561 -8.21264,0.49611 -11.52086,0.48004 -14.3458,-1.14877 -30.0152,1.03552 -43.68329,-0.24002 -0.73501,-3.98544 1.41601,-10.85691 -0.96008,-13.20127 -11.10167,-0.69669 -22.57979,1.5311 -32.88247,0.24002 -0.18465,-3.57569 1.25681,-8.77749 -2.88022,-8.4008 -0.31956,-7.12115 0.63755,-15.51897 -0.48003,-21.8421 -5.96318,-0.70273 -15.06345,1.52387 -18.96143,-1.44014 0.61625,-6.10878 -12.66547,1.09371 -11.76089,-5.28051 -4.71143,1.19357 -5.57415,-0.82223 -5.2804,-4.80046 -3.06245,0.42223 -5.18719,-0.0932 -5.04038,-2.88028 -4.80305,0.92547 -2.02952,-5.31458 -6.96052,-4.56044 -0.80907,-2.23733 -4.82477,-1.99074 -7.68058,-2.40023 -4.823336,-0.3727 -9.104164,-0.0323 -10.56079,3.1203 -1.76069,2.1438 -5.753808,1.99852 -6.48049,4.80046 0.145277,4.33963 -6.898099,1.98062 -11.52087,2.64026 -4.672297,-1.14755 -13.893428,2.06478 -16.56125,-1.44014 1.197591,-9.69145 1.91177,-19.90002 3.12024,-30.72295 -0.28277,-6.5349 1.425726,-13.22824 0.96007,-19.20185 0.628024,-4.57238 9.746831,-0.65398 13.44101,-2.16021 8.70565,-0.015 16.237251,-1.20408 25.44192,-0.72007 6.35659,-0.0325 13.4776,1.09733 19.44146,0.24002 2.48019,0 4.96037,0 7.44056,0"
             id="path47-2" />
          <path
             style="fill:none;stroke:#6e6e6e;stroke-width:3;stroke-linecap:round;stroke-linejoin:round;stroke-miterlimit:10"
             clip-path="url(#SVG_CP_1-1)"
             d="m 125.52945,291.14799 c 9.21392,0.42044 19.44156,-1.73295 27.8421,0.24003 -0.30408,3.18084 0.66861,5.04321 2.40018,7.20069 -4.93284,5.43565 7.41148,2.36429 10.5608,3.1203 5.58841,-0.69893 14.87355,2.46508 12.24092,-6.2406 0.22731,-2.65294 5.56329,-0.19721 3.60027,-5.04048 4.01366,0.75101 3.55968,2.11056 7.20054,0 0.78952,1.17376 1.59172,-0.36672 2.6402,-0.48005"
             id="path49-0" />
          <path
             style="fill:none;stroke:#6e6e6e;stroke-width:3;stroke-linecap:round;stroke-linejoin:round;stroke-miterlimit:10"
             clip-path="url(#SVG_CP_1-1)"
             d="m 285.62151,276.50659 c 20.06086,0.28457 40.67722,-0.46137 59.7645,0.72007 0.0232,11.09786 -0.25439,22.49651 0.96007,32.40311 4.70851,0.83342 12.64814,-1.73563 10.32078,5.76056 0.80516,5.41719 -1.60007,13.55462 1.20009,17.28166 6.66567,0.66808 15.766,-0.86896 20.88157,1.20011 0.3814,4.65032 -2.21665,12.6307 5.2804,10.321 9.42911,-0.16711 20.32531,-0.7736 29.04219,0.24002 -0.0179,5.77844 -1.82331,13.34432 6.48048,10.80104 8.84525,-3.13568 1.80704,9.94043 6.48049,11.28108 10.43676,0.41493 22.02281,-1.06998 31.68239,0.24002 0.067,5.90755 1.77369,13.45472 -6.72051,10.80104 -14.7484,-0.0138 -30.07087,0.0866 -43.68329,-0.72007 -37.68962,-0.0201 -74.62591,-0.0526 -112.56847,0"
             id="path51-3" />
          <path
             style="fill:none;stroke:#6e6e6e;stroke-width:3;stroke-linecap:round;stroke-linejoin:round;stroke-miterlimit:10"
             clip-path="url(#SVG_CP_1-1)"
             d="m 294.7422,376.83623 c -10.56721,-0.47363 -23.09424,1.01257 -32.40244,-0.72007 0.94708,-1.14119 5.28059,0.2133 1.92014,-2.40023 -1.4133,-3.25074 2.24654,-7.98768 0.48004,-11.28108 -0.30194,-2.89151 1.09741,-3.77334 1.44011,-6.72065 -0.66592,-2.80111 -0.70541,-3.34228 -1.2001,-6.00057 -0.64348,-2.53702 0.0884,-4.86025 2.16017,-6.2406 1.32712,-1.3343 1.24082,-3.30293 2.16016,-4.32042 1.29817,-1.46251 6.22529,1.74135 5.52042,-1.92018 0.69263,-2.52438 1.24478,-5.63064 2.16016,-6.2406 1.66006,-2.60849 2.81346,-5.37959 0.96007,-8.88086 3.66442,-1.69094 6.49275,-6.15223 6.00045,-10.56101 -0.68614,-2.26189 -1.54361,-4.39574 -0.48003,-6.00058 -0.0816,-2.3967 -0.88153,-4.88631 -0.72006,-7.20069 0.0586,-4.63559 -3.14398,-3.34419 -3.84029,-6.96067 -2.94202,-1.09189 -0.45895,-6.32169 -1.68012,-8.88086 0.71482,-2.53766 -2.54538,-7.39298 4.0803,-5.76055 1.65612,0.0982 2.60041,-0.41521 4.32033,-0.24002"
             id="path53-1" />
          <path
             style="fill:none;stroke:#6e6e6e;stroke-width:3;stroke-linecap:round;stroke-linejoin:round;stroke-miterlimit:10"
             clip-path="url(#SVG_CP_1-1)"
             d="m 670.37048,269.78594 c 3.0046,0.6757 2.48705,4.87356 7.20054,3.84037 0.25548,3.66487 5.16018,2.68052 3.84029,7.92076 -0.52878,4.86117 -0.43456,8.28525 5.04038,6.96067 6.2218,0.47877 15.21729,-0.95616 19.68149,0.72007 2.2632,4.66007 7.63478,6.76535 10.08075,1.92018 2.6737,1.60872 3.13642,5.87118 6.24047,6.48063 -0.36442,-3.59711 8.07208,-2.8821 6.96053,1.44014 -2.05071,4.89879 4.47445,2.53733 5.76043,5.04048 3.42111,3.63081 -2.27284,7.43989 -2.6402,10.80104 -3.16201,0.35752 -4.51793,1.94484 -3.36025,6.00058 2.69373,1.00621 4.37116,3.99151 2.88022,6.72064 2.56617,2.34635 -6.56074,4.3834 -1.68013,5.76056 -1.83261,2.05054 1.56189,4.20996 -1.92014,5.52053 1.02794,3.004 -0.25723,6.59598 -3.60027,6.72064 1.71501,2.23859 -0.375,1.69824 -1.2001,3.60035 1.63736,4.21797 -0.21029,12.47374 0.48004,18.48178 0,31.92307 0,63.84614 0,95.76921"
             id="path55-0" />
          <path
             style="fill:none;stroke:#6e6e6e;stroke-width:3;stroke-linecap:round;stroke-linejoin:round;stroke-miterlimit:10"
             clip-path="url(#SVG_CP_1-1)"
             d="m 724.13453,463.48457 c -0.16224,39.20154 0.32835,79.05592 -0.24002,117.85133 -36.23351,-0.0909 -72.21212,0.4336 -108.48817,0.24002 0.0653,-11.29932 0.87054,-24.22369 -0.24001,-34.80335 -2.80246,-2.47804 -0.40019,-10.16081 -1.2001,-14.6414 -0.0305,-21.52183 -0.37291,-42.89425 -0.24001,-64.56621"
             id="path57-8" />
          <path
             style="fill:none;stroke:#6e6e6e;stroke-width:3;stroke-linecap:round;stroke-linejoin:round;stroke-miterlimit:10"
             clip-path="url(#SVG_CP_1-1)"
             d="m 613.72622,467.56496 c -2.57826,-5.74253 -0.56451,-16.07707 -1.20009,-23.76229 0.75,-23.78505 -0.65615,-46.36541 -0.24002,-70.32676 0.33025,-24.18451 0.86274,-48.78392 0.24002,-73.44706 -0.7446,-2.02063 -1.14259,-7.61827 3.36025,-5.76056 0.54527,-2.73501 5.32947,-1.2311 4.32032,-5.52053 2.35329,-0.92699 3.07831,-3.48225 5.04038,-4.80046 0.2103,-3.55003 3.67783,-3.84284 4.32033,-6.96067 2.16974,-0.71051 1.6955,-4.065 3.60027,-5.04048 4.0583,0.45801 3.87555,-3.32503 8.88067,-1.92019 9.42268,-0.14865 18.99377,0.30462 28.32213,-0.24002"
             id="path59-0" />
          <path
             style="fill:none;stroke:#6e6e6e;stroke-width:3;stroke-linecap:round;stroke-linejoin:round;stroke-miterlimit:10"
             clip-path="url(#SVG_CP_1-1)"
             d="m 410.91094,254.42446 c 3.23531,2.60524 0.56148,11.11962 1.44011,16.08155 9.9865,0.94551 23.69973,-0.61003 33.84255,0.72007 -1.16861,4.96952 1.21074,7.35296 6.24047,5.76055 5.38686,-1.38651 5.62493,2.37577 5.04038,6.96067 -1.25667,7.25715 9.526,2.47496 14.16107,3.84037 4.26955,0.13082 10.46234,-1.66161 8.64065,4.56044 -0.68747,12.99384 0.42678,27.78941 -0.72006,40.32388 -6.11775,-0.27726 -13.13504,-1.45407 -10.56079,6.96067 -0.30937,8.69713 0.69868,19.18243 -0.96007,26.64256 -14.43456,-0.62689 -30.25148,1.17255 -43.68329,-0.48005 0.32784,-5.98788 1.30633,-13.31275 -6.96053,-10.56101 -9.66112,2.94053 1.07678,-14.51796 -8.88067,-11.28109 -9.86912,-0.42281 -20.44332,0.73287 -29.76224,-0.24002 0.007,-5.76766 1.82115,-13.34217 -6.48049,-10.80104 -5.00107,-0.4815 -11.8718,0.79046 -15.60117,-1.20011 -0.31531,-7.0454 0.63366,-15.35508 -0.48004,-21.60208 -4.62686,-0.57333 -12.53286,1.70143 -10.32077,-5.52053 -0.13915,-8.4598 -1.47045,-19.70066 0.24001,-27.60266 4.44472,-0.59569 12.62492,2.54409 10.32078,-4.80046 -0.662,-4.58234 -0.1148,-7.95548 5.2804,-6.48062 9.44544,2.4798 11.51705,-2.8495 9.60072,-11.28109 2.63409,-0.18025 5.06362,0.38353 7.68058,0.24003"
             id="path61-7" />
          <path
             style="fill:none;stroke:#6e6e6e;stroke-width:3;stroke-linecap:round;stroke-linejoin:round;stroke-miterlimit:10"
             clip-path="url(#SVG_CP_1-1)"
             d="m 378.98854,254.66449 c 10.52379,-0.53599 21.30516,-0.0963 31.9224,-0.24003"
             id="path63-2" />
          <path
             style="fill:none;stroke:#6e6e6e;stroke-width:3;stroke-linecap:round;stroke-linejoin:round;stroke-miterlimit:10"
             clip-path="url(#SVG_CP_1-1)"
             d="m 121.44915,233.78248 c 11.1525,1.10997 24.58282,-0.95098 34.5626,0.96009 2.13373,2.01875 2.49678,5.76642 5.76043,5.52053 3.24806,3.49503 -1.92934,4.63961 -5.52041,4.56044 -3.75811,0.053 -2.47012,3.59098 -4.80036,4.80046 3.8308,3.0455 -6.76609,1.01749 -6.00046,5.52053 3.40803,1.21061 -0.62794,4.01463 2.88022,4.80046 3.25947,3.24504 -0.28686,6.53522 2.40018,9.84095 -1.01494,1.62556 -2.51683,2.4933 -1.68013,3.60035 -0.66573,1.50272 0.33424,4.69451 -1.92014,4.56044 1.52406,2.1655 2.80525,2.38411 0.96007,3.84036 1.21198,1.81254 -3.27314,3.49108 1.20009,2.88028 -0.5012,3.68195 4.06572,2.5212 2.6402,5.52053 2.05258,1.25108 -7.18115,0.0984 -9.60072,0.48005 -8.89606,0.44894 -18.65313,0.54465 -27.60208,0.48004 -5.0714,1.22156 -12.36787,-0.55034 -17.04128,-0.72006 2.012766,-5.67685 -5.517952,-1.94719 -3.84029,-7.44072 5.361743,0.30296 10.71888,-0.24942 9.3607,-6.00058 -1.75001,-4.42622 1.01606,-7.17656 5.76044,-5.52053 4.93941,0.86994 6.10953,-0.96849 5.28039,-5.76055 0.62142,-10.65492 -0.46493,-21.35306 -0.48003,-31.92307 2.56213,0.63252 5.10716,-0.15914 7.68058,0 z"
             id="path65-3" />
          <path
             style="fill:none;stroke:#6e6e6e;stroke-width:3;stroke-linecap:round;stroke-linejoin:round;stroke-miterlimit:10"
             clip-path="url(#SVG_CP_1-1)"
             d="m 189.8543,224.18156 c 2.98997,1.4117 5.86844,-0.42284 7.20054,2.1602 3.46921,1.6996 7.58372,-3.43855 10.80081,0.24003 2.18784,1.14515 5.72229,1.12921 6.24047,2.1602 1.6981,2.53169 3.94908,0.14737 6.48049,0.72007 4.8282,1.15207 9.62992,-1.5529 15.60118,0.48005 2.37655,2.60645 3.91334,6.39659 6.48048,7.44072 3.56943,-0.89126 6.40219,-6.7786 9.60073,-1.92019 3.90595,1.15286 5.6809,2.98364 9.60072,2.64025 3.09922,-1.18406 5.60753,1.83801 11.28085,0.72007 5.29329,0.10323 9.26781,-1.16439 8.16061,3.60035 -0.55339,3.17337 -1.66582,6.01782 0.48004,7.92076 -0.37014,3.62786 -2.31161,5.82237 -1.68013,10.08097 -1.43871,1.19159 -4.11022,3.82075 -3.36025,6.2406 0.43729,3.86767 0.0367,8.48875 0.48004,12.24118 0.0782,3.4297 0.49043,8.4861 0.24001,11.52111 3.71165,1.38543 0.95003,4.89375 -3.36025,3.1203 -11.52167,0.64751 -22.03221,1.4937 -34.5626,1.20011 -4.29248,-0.24933 -9.09041,-0.50184 -7.68058,3.1203 -2.38176,2.16511 -4.66378,3.37172 -7.20054,1.20012 -3.76513,-0.0434 -6.67707,0.4356 -9.60072,-0.9601 -1.98833,-1.04377 -4.12587,-0.67122 -6.00046,-0.48004"
             id="path67-1" />
          <path
             style="fill:none;stroke:#6e6e6e;stroke-width:3;stroke-linecap:round;stroke-linejoin:round;stroke-miterlimit:10"
             clip-path="url(#SVG_CP_1-1)"
             d="m 209.05574,297.62862 c -0.47013,-2.8252 -7.26664,-1.08283 -7.20054,-5.04049 -4.08885,-0.11865 -8.4951,-3.9952 -12.0009,-1.68016 -2.74885,-1.22214 -3.35674,2.62074 -5.04038,0 -2.16459,-1.02332 -3.07714,0.0664 -2.88022,3.1203 -7.18645,-2.30603 0.572,10.33284 -7.20054,7.44072 -6.42073,-0.12186 -15.2411,1.0185 -20.16152,-0.24003 3.06058,-3.82403 -2.56018,-4.80252 -0.96007,-9.12087 -2.1986,-1.97283 -0.65993,-4.64661 -4.08031,-5.04049 0.98576,-3.82057 -5.02406,-1.50314 -0.96007,-4.08039 -1.62055,-2.33597 2.58732,-2.49937 -0.96007,-4.08039 -1.20039,-1.59453 2.85474,-2.02278 0.96007,-5.28051 1.49652,-0.12856 -1.0346,-2.71669 1.92014,-2.88028 -0.76632,-3.46235 -1.02482,-5.51973 -0.72005,-9.3609 -1.64619,-1.78976 -4.49845,-2.33699 -2.40018,-4.80046 -4.5199,-2.38548 1.52971,-5.78832 5.2804,-5.28051 -1.43557,-1.62822 -0.63562,-2.4356 0.48003,-4.08039 0.31986,-2.03038 2.64546,-2.57613 5.2804,-2.88028 5.60926,1.70876 5.25268,-5.51995 0.72005,-4.56043 -0.94291,-3.07985 -5.46604,-6.3307 -1.68012,-8.64083 -1.93225,-0.96023 2.96431,-3.53181 2.6402,-0.72007 2.59188,0.19352 3.54287,0.27212 5.28039,1.20011 0.89936,1.32681 0.80984,2.74044 2.88022,1.92019 -0.6282,3.67246 0.98819,5.97617 2.6402,3.60034 2.12557,-1.24276 2.21759,-4.25373 5.04038,-2.64025 1.74119,-2.31727 4.54072,-4.54874 7.9206,-6.48062 -0.19231,-2.88946 0.84376,0.27021 1.92014,-0.72007"
             id="path69-1" />
          <path
             style="fill:none;stroke:#6e6e6e;stroke-width:3;stroke-linecap:round;stroke-linejoin:round;stroke-miterlimit:10"
             clip-path="url(#SVG_CP_1-1)"
             d="m 185.77399,227.30186 c 1.04174,-0.94228 1.85933,-2.62063 4.08031,-3.1203"
             id="path71-5" />
          <path
             style="fill:none;stroke:#6e6e6e;stroke-width:3;stroke-linecap:round;stroke-linejoin:round;stroke-miterlimit:10"
             clip-path="url(#SVG_CP_1-1)"
             d="m 285.62151,219.62112 c 23.26295,1.3514 48.83857,0.32412 72.96549,0.96009 18.09651,0.0609 38.13075,-0.2326 54.96414,0.48005 -1.59231,0.17252 0.0668,3.89503 -1.92014,2.40023 -1.80291,0.37312 0.7635,4.19665 0.72005,5.52053 -0.31517,8.32565 0.63307,17.91472 -0.48003,25.44244 -13.39415,0.16673 -28.12143,-0.39822 -40.56306,0.48005 0.53769,5.84903 1.92298,13.44194 -6.48049,10.80104 -4.64887,-0.0885 -10.4374,-1.31664 -8.40063,5.28051 1.62177,5.94214 -1.73595,6.90478 -6.96052,6.00057 -18.05443,-0.0712 -35.56687,-0.91871 -54.00407,-0.24002 -6.15393,-1.30578 -13.97881,1.36634 -18.72141,-0.96009 0.71889,-3.4714 -0.12045,-7.98989 0,-11.04106 -0.13843,-2.70099 5.16994,-3.04919 2.88022,-7.2007 1.82629,-3.05086 2.75811,-7.73519 0.48003,-10.32099 1.25965,-2.68045 1.03743,-3.99479 1.20009,-7.20069"
             id="path73-8" />
          <path
             style="fill:none;stroke:#6e6e6e;stroke-width:3;stroke-linecap:round;stroke-linejoin:round;stroke-miterlimit:10"
             clip-path="url(#SVG_CP_1-1)"
             d="m 281.30118,240.02308 c 0.27505,-1.2227 -0.25554,-4.89654 0.24002,-6.96067 -2.27114,-2.16273 6.54397,-5.14585 1.20009,-6.00058 -4.76002,0.10718 -4.17195,-6.81938 1.68013,-6.2406 0.2906,-0.69203 0.38286,-0.58715 1.20009,-1.20011"
             id="path75-3" />
          <path
             style="fill:none;stroke:#6e6e6e;stroke-width:3;stroke-linecap:round;stroke-linejoin:round;stroke-miterlimit:10"
             clip-path="url(#SVG_CP_1-1)"
             d="m 554.68177,197.53899 c 11.8984,0.40653 25.61117,-0.69754 36.24273,1.20012 3.54143,-1.40869 1.01372,6.32197 5.04038,2.16021 1.72657,-0.14196 3.20675,-1.96937 4.80036,-2.16021 2.51472,2.32261 4.04439,1.78655 5.76043,3.60035 1.05314,-0.37954 3.31792,0.77674 4.56035,0.96009 0.23902,2.05765 2.67493,2.017 1.44011,4.80046 -2.19139,1.06116 2.82596,8.07778 -1.92015,6.96067 -2.67487,-0.95446 -4.2014,0.0816 -5.2804,2.64025 -2.19538,2.41829 2.16111,3.36213 0.96008,6.96067 2.55643,3.49203 0.13318,7.67726 -4.32033,6.2406 -4.28525,-1.78795 -4.01229,3.52538 -6.96052,2.40023 0.15261,1.5489 -4.45729,-0.58145 -4.32033,2.64026 -3.74428,-2.1327 -6.75129,0.51579 -3.60027,4.80046 1.63117,1.47089 6.04846,1.82708 7.9206,2.64025 2.66337,1.53019 6.56748,-0.54748 7.20054,3.60035 1.94795,2.52919 4.52188,4.34182 1.68013,7.68074 -2.74188,-1.54113 -2.55586,3.17996 -4.56035,4.56044 -0.73948,2.76217 2.68736,7.59961 -0.72005,8.4008 -2.36752,0.99961 -4.65802,0.58424 -3.84029,4.56044 -2.45665,2.73888 0.0779,4.56794 0.96007,7.20069 -2.99659,-0.15228 -1.73785,2.77702 -4.32032,3.84037 -1.39526,2.88571 -3.94897,6.36492 -3.84029,10.321"
             id="path77-9" />
          <path
             style="fill:none;stroke:#6e6e6e;stroke-width:3;stroke-linecap:round;stroke-linejoin:round;stroke-miterlimit:10"
             clip-path="url(#SVG_CP_1-1)"
             d="m 587.56425,293.54823 c 4.81093,2.31243 13.26291,0.22592 19.44146,0.72006 5.74746,-1.78387 5.37682,2.56759 5.52042,6.00058 -0.44808,7.0252 1.58465,16.5846 -0.72006,22.08213 -12.25437,-0.30658 -25.93001,0.80811 -36.72276,-0.9601 -5.39888,0.60158 -13.24323,-1.2423 -17.04129,0.9601 -0.36744,4.66237 2.20938,12.62426 -5.28039,10.32099 -24.26541,-0.21146 -48.97201,0.47348 -72.72548,-0.24003 0.23149,-37.20142 0.11796,-74.67833 0.48004,-111.85075 -4.18193,-0.69852 -0.84,-8.92092 -1.92015,-12.72122 0.29126,-4.58918 -1.97333,-11.7342 4.80036,-9.84095 24.07696,-0.0105 47.18053,-0.19744 71.28537,-0.48005"
             id="path79-8" />
          <path
             style="fill:none;stroke:#6e6e6e;stroke-width:3;stroke-linecap:round;stroke-linejoin:round;stroke-miterlimit:10"
             clip-path="url(#SVG_CP_1-1)"
             d="m 84.24634,191.29839 c 5.914869,0.30266 13.066798,-0.23653 18.24138,0.72007 0.33386,13.02742 -0.67499,27.39755 0.48003,39.60381 1.61948,1.34076 2.89123,3.02925 6.72051,2.16021 7.25776,-1.89728 2.68102,8.03995 4.56034,11.52111 -0.37459,8.51438 1.06272,18.53551 -0.48003,26.16251 -4.13845,0.61256 -12.92733,-2.82742 -10.80082,4.56044 1.86623,5.35189 -2.16279,7.52751 -7.68057,6.96067 -3.912053,0.88732 0.107113,4.78469 2.40018,4.08039 1.113917,7.27441 -9.905207,2.41578 -14.64111,3.84037 -6.466817,1.389 -16.430992,0.95475 -23.28175,0.48005 0.441745,-8.15042 3.764001,-16.63636 2.40018,-24.24233 -1.913858,-6.74919 3.133126,-11.64119 1.44011,-18.96183 1.881301,-4.34538 -2.614054,-8.93174 0.48004,-13.20127 -1.772834,-7.80565 -0.265421,-17.26656 2.6402,-23.04221 0.979082,-5.44442 2.348971,-11.91304 1.92014,-16.32157 -2.670112,-7.86547 10.819221,-2.75745 15.60117,-4.32042 z"
             id="path81-8" />
          <path
             style="fill:none;stroke:#6e6e6e;stroke-width:3;stroke-linecap:round;stroke-linejoin:round;stroke-miterlimit:10"
             clip-path="url(#SVG_CP_1-1)"
             d="m 405.63055,188.41812 c 20.9283,-0.17174 41.43201,0.5273 61.92466,0 -0.23919,5.35964 -1.29823,11.53913 5.76043,9.60092 5.36906,-1.36871 6.00295,1.99775 5.2804,6.72065 0.74264,4.93789 -1.52229,12.88337 1.20009,15.84152 1.60415,9.08374 -0.0951,21.44333 0.48004,31.92307 -0.3128,11.60834 0.6241,24.46639 -0.48004,35.28339 -7.13247,-0.62812 -16.77753,1.25635 -22.32168,-0.96009 0.22554,-5.506 1.36103,-11.92196 -6.00045,-9.84095 -5.26941,1.98893 -5.94562,-1.96572 -5.2804,-6.2406 -11.10831,-0.20608 -23.6924,0.38404 -33.84255,-0.24002 0.0117,-13.91541 -0.0157,-30.41194 0,-42.72411 -1.16721,-0.87392 -1.97248,-4.50494 -0.72005,-4.32041 1.4975,1.50773 1.15592,-1.76665 1.20009,-2.16021 2.24218,-1.4336 -3.95132,-1.79448 -3.12024,-4.80046 -3.29072,-0.44732 -5.81024,-3.2778 -2.16016,-4.80046 0.71708,-3.5806 -3.92793,-0.35458 -2.88022,-3.36033 -0.40019,-3.06023 -2.40353,-4.70999 -0.96007,-7.44071 -0.39446,-2.02812 -0.11697,-4.44816 -0.48003,-6.72065 -0.31104,-1.91854 0.1968,-4.21546 -0.72006,-5.76055 1.04008,0 2.08016,0 3.12024,0 z"
             id="path83-2" />
          <path
             style="fill:none;stroke:#6e6e6e;stroke-width:3;stroke-linecap:round;stroke-linejoin:round;stroke-miterlimit:10"
             clip-path="url(#SVG_CP_1-1)"
             d="m 102.48772,187.218 c 20.12107,0.88025 41.62379,-0.56982 60.96459,0.72007 0.12596,4.3196 -2.25482,10.47339 2.88022,11.52111 1.21172,5.45487 -3.55995,7.71079 -6.96053,7.44071 0.0152,1.99116 -3.32377,5.97306 -3.84029,8.88086 -3.69512,-2.94039 -3.39772,6.0969 0,3.84037 4.07642,0.005 8.26621,3.86101 2.40018,5.28051 -1.37089,1.98423 -3.01775,4.5172 -0.48003,6.72064 -1.85404,1.87341 -2.58988,3.43539 -7.68058,2.40023 -14.78069,-0.4877 -31.90868,0.97318 -45.36342,-0.96009 -2.02609,-1.33421 -2.24047,-4.48015 -1.92014,-8.16078 0,-12.56121 0,-25.12242 0,-37.68363 z"
             id="path85-0" />
          <path
             style="fill:none;stroke:#6e6e6e;stroke-width:3;stroke-linecap:round;stroke-linejoin:round;stroke-miterlimit:10"
             clip-path="url(#SVG_CP_1-1)"
             d="m 707.8133,186.73796 c 12.91615,0.0787 26.36211,0.0831 38.88293,0.48004 -1.41785,3.98107 -7.23528,5.88213 -5.76043,10.32099 -2.06658,2.56385 -0.34446,4.58336 1.20009,1.92019 1.56728,1.16964 -3.97859,3.52147 -0.24002,5.52053 0.0827,5.1155 -2.56058,9.80342 -5.76044,12.00115 -0.13331,2.83506 -3.25258,5.19982 -3.84028,8.88086 -3.38417,1.38455 -5.62416,3.75304 -9.36071,4.56044 -2.29785,2.28229 -1.66416,5.1365 -3.84029,8.16078 -0.56313,2.28078 -1.7769,4.47649 -1.92014,6.48062 -2.65577,2.5893 -1.42246,7.52959 -4.32033,9.60093 2.23814,4.80149 -5.06761,4.44 -4.56034,8.64083 -2.80753,1.23347 -2.86784,3.20074 -1.44011,6.00057 -0.93033,6.09459 -4.72188,9.61989 0.96007,12.72123 3.26983,3.69522 -2.10743,8.14174 -8.16061,6.48062 -5.74604,-0.5106 -14.17693,0.99039 -18.24138,-0.72007 -0.16365,-4.39677 0.93265,-10.05349 -1.92014,-11.76113 -1.58282,-1.37742 -3.43936,-2.48112 -5.76043,-3.1203 -1.11462,-2.54278 -3.32511,-3.64868 -7.44056,-2.88028 -9.75969,0.32107 -20.80372,-0.64219 -29.76225,0.48005 -0.74227,2.13797 -4.08955,1.67092 -5.52041,3.1203 0.36578,3.40604 -1.6796,4.40093 -3.36025,5.76055 -1.67614,1.92418 -2.1909,5.00974 -4.32033,6.48063 -1.55573,2.04458 -3.98016,3.22047 -4.08031,6.72064 l -0.48003,0"
             id="path87-6" />
          <path
             style="fill:none;stroke:#6e6e6e;stroke-width:3;stroke-linecap:round;stroke-linejoin:round;stroke-miterlimit:10"
             clip-path="url(#SVG_CP_1-1)"
             d="m 618.7666,292.58813 c -3.47898,0.0413 -4.26262,2.77794 -8.88067,1.68016 -7.26305,-0.66125 -16.51885,1.66825 -22.32168,-0.72006 0.0914,-4.49512 2.59228,-7.74849 4.32032,-11.28109 2.52491,-0.26943 1.34273,-3.4905 4.08031,-3.36032 -3.51722,-2.90483 -1.60641,-4.60204 -1.20009,-8.40081 0.046,-4.01705 6.30422,-0.97878 5.52041,-5.52053 -1.40102,-2.87681 -1.44893,-6.88348 0.96008,-8.40081 0.1447,-3.55889 3.51258,-0.97098 3.60027,-4.56044 1.89384,-2.46826 -3.86381,-3.59401 -3.12024,-6.72064 -2.2372,-2.4883 -5.19215,0.0217 -7.92059,-2.64026 -3.04235,0.38601 -8.15837,-1.49403 -7.9206,-5.2805 -1.24123,-3.8755 4.81931,-0.72717 5.04038,-2.16021 1.72351,-2.80239 3.93341,-0.38629 5.04038,-1.92019 1.70075,-0.52437 3.57257,-4.03439 7.20054,-2.40023 6.5625,0.98212 2.68383,-5.46758 3.36025,-8.64083 -2.08931,-2.26029 -2.45946,-3.56406 0,-6.2406 0.39132,-3.25573 8.75625,2.13735 5.76044,-4.56044 -1.16056,-2.49873 2.37831,-6.00674 -1.20009,-7.20069 0.79504,-2.49215 3.29225,-6.18032 3.36025,-8.16078 2.70537,-1.62089 6.24019,-0.6558 7.44056,-4.56044 4.46901,-1.45246 4.55947,5.26306 9.36071,5.28051 1.45539,0.59623 1.6705,1.22441 3.60027,1.20011"
             id="path89-6" />
          <path
             style="fill:none;stroke:#6e6e6e;stroke-width:3;stroke-linecap:round;stroke-linejoin:round;stroke-miterlimit:10"
             clip-path="url(#SVG_CP_1-1)"
             d="m 634.84781,198.01904 c 5.12195,-0.42303 8.33443,-5.74733 10.32077,-8.64083 0.49734,-0.65437 1.54649,0.69126 3.36026,0.48005 -0.54577,0.38994 3.41402,6.46991 2.88021,3.1203 1.56306,0.66098 1.28206,1.87537 2.88022,3.36032 -1.52733,3.92906 8.34726,1.04084 11.52087,1.92018 4.70516,0.13692 10.51964,1.20389 8.64065,-5.2805 -0.75143,-4.35175 0.008,-7.19299 4.80036,-6.00058 9.55091,-0.0248 18.91251,-0.43326 28.56215,-0.24002"
             id="path91-6" />
          <path
             style="fill:none;stroke:#6e6e6e;stroke-width:3;stroke-linecap:round;stroke-linejoin:round;stroke-miterlimit:10"
             clip-path="url(#SVG_CP_1-1)"
             d="m 172.81301,159.85537 c 0.83793,2.85239 4.6248,1.52699 6.24047,3.60035 2.62979,1.43748 4.87171,-0.4293 6.96053,-2.16021 3.40494,-1.02658 5.91042,3.3358 7.20054,2.88028 -0.65847,3.00425 0.27966,2.23261 0,5.52053 -2.45836,0.003 0.99827,2.7821 -1.20009,2.1602 1.02132,0.75755 0.47726,2.95053 -1.20009,4.32042 -1.44603,3.14543 -1.53104,5.40741 1.92014,6.96067 2.23216,2.1509 2.90455,5.28476 5.76044,7.20069 2.58336,2.33104 5.23069,2.57114 8.88067,4.80046 -1.21095,3.06822 1.97009,3.94157 2.88021,5.52053 1.34632,3.62866 3.24095,5.36934 6.00046,7.44072 3.33547,-1.49684 5.40529,3.444 9.60072,1.92018 -1.3239,3.74447 2.02096,2.02113 6.96052,2.40024 17.65217,0.49487 38.60183,-0.97984 54.24409,0.72006 -2.88738,1.87089 0.85338,5.98037 -2.40018,7.44072 -3.69892,-0.11014 -7.36865,3.81771 -4.08031,5.76055 2.13682,0.57442 6.01719,1.45612 2.40018,3.60035 -2.88892,1.49131 -1.0251,3.25813 -1.92014,6.48062 2.659,4.34467 -9.05622,1.7743 -12.72096,2.40023 -3.49292,-0.13698 -4.135,-1.9832 -6.96053,-0.48004 -3.74016,-0.2246 -5.18129,-1.8015 -8.88067,-2.64026 -2.90307,-2.31848 -2.90974,-3.426 -5.76043,-0.72007"
             id="path93-8" />
          <path
             style="fill:none;stroke:#6e6e6e;stroke-width:3;stroke-linecap:round;stroke-linejoin:round;stroke-miterlimit:10"
             clip-path="url(#SVG_CP_1-1)"
             d="m 246.73858,234.98259 c -2.97719,2.96039 -6.06228,3.00782 -7.44056,-1.20011 -1.67692,-2.15055 -5.05724,-6.19823 -7.9206,-4.32042 -4.92752,-0.2501 -7.19831,0.57574 -12.24092,0 -1.00283,-0.0132 -5.31102,1.49097 -5.2804,-1.44013 -3.56021,0.8305 -7.13838,-3.64434 -10.56079,-2.64026 -2.99832,2.31408 -6.86318,0.91195 -8.40063,-0.48004 -4.11322,-0.58842 -7.80841,-0.83138 -8.88067,2.40023 -2.61234,-1.06297 -1.9822,1.66196 -4.56035,2.40023 -3.86037,1.21291 -4.22274,5.98616 -8.16061,4.56044 -1.13396,2.35694 -3.18442,3.95088 -4.32033,3.84036 -1.78127,-1.06426 0.6254,-6.26805 -2.64019,-4.32041 -0.15398,-2.4323 -1.95041,-2.06398 -3.12024,-3.36032 -2.53967,2.03054 -3.68133,-3.21269 -5.2804,-0.48005 -3.97492,0.73327 -0.62482,-5.62805 1.44011,-5.76055 5.31539,-2.61956 -3.10845,-4.98025 -5.52041,-4.32042 -1.7804,-1.44112 -1.06729,-6.25289 2.16016,-4.32041 0.45111,-3.72544 3.02508,-7.87885 4.56034,-9.12088 3.66076,2.59814 8.64709,-6.66486 4.08031,-7.68074 -3.04479,-2.27511 -1.4758,-10.23619 -0.24002,-12.4812 2.50024,-1.73034 8.36517,-4.56833 3.12024,-7.44072 -3.54658,-2.90452 3.28175,-2.10846 1.68012,-3.84037 -1.67536,-1.57559 -0.68291,-5.47682 -3.84029,-4.08039 -1.03027,-3.06867 1.42175,-3.02178 4.32033,-2.88027"
             id="path95-7" />
          <path
             style="fill:none;stroke:#6e6e6e;stroke-width:3;stroke-linecap:round;stroke-linejoin:round;stroke-miterlimit:10"
             clip-path="url(#SVG_CP_1-1)"
             d="m 169.69278,168.01616 c 0.43606,-2.91754 -0.46203,-6.03209 2.40018,-7.2007 -0.0645,-0.549 0.39124,-0.80351 0.72005,-0.96009"
             id="path97-8" />
          <path
             style="fill:none;stroke:#6e6e6e;stroke-width:3;stroke-linecap:round;stroke-linejoin:round;stroke-miterlimit:10"
             clip-path="url(#SVG_CP_1-1)"
             d="m 137.29034,140.17348 c 6.6405,0 13.281,0 19.9215,0 0.37801,3.14228 2.71294,4.32765 6.72051,3.84037 4.48933,-0.80903 3.49403,3.86658 6.7205,4.32041 1.29342,1.90685 2.34454,4.05599 6.24047,3.36033 0.59695,3.64342 5.85106,2.62968 5.04038,7.68073 -1.03164,4.22822 3.59184,4.57992 -1.20009,4.56044 -1.86242,-0.90237 -4.25037,-1.92755 -6.72051,-2.40023 -0.74915,-3.53952 -3.42783,0.80169 -4.32032,2.16021 2.09057,4.19115 -1.76605,4.24973 -4.32033,5.04048 -0.86914,3.71899 3.90023,0.68601 3.12024,5.76056 3.80098,2.08373 -5.11382,1.44983 -0.72006,4.56044 4.66869,2.61774 -0.26083,4.92169 -2.40018,6.72064 -5.63981,3.88091 -18.44037,0.60108 -26.88202,1.68016 -13.58429,-0.37107 -28.80894,0.79903 -41.52313,-0.72006 0.645618,-5.59498 -1.3188,-13.79999 0.96007,-17.76171 9.53822,-0.44432 20.03751,0.59518 28.80217,-0.48005 0.0837,-9.50607 -0.0953,-18.91745 0,-28.32272 3.52027,0 7.04053,0 10.5608,0 z"
             id="path99-4" />
          <path
             style="fill:none;stroke:#6e6e6e;stroke-width:3;stroke-linecap:round;stroke-linejoin:round;stroke-miterlimit:10"
             clip-path="url(#SVG_CP_1-1)"
             d="m 279.38104,136.57313 c 2.38788,3.2054 1.08273,7.73602 7.20054,8.40081 4.47333,0.94421 3.87095,4.73388 3.60027,8.40081 2.14361,3.98351 2.41764,5.83465 0.48004,10.32099 3.03375,2.2217 0.43837,3.50118 -1.20009,5.28051 -1.93792,0.20254 -5.51071,2.51889 -2.40018,5.28051 1.97489,2.00429 2.41486,6.09784 4.32032,7.68073 3.05277,-2.21411 3.90872,4.08049 2.88022,6.48063 -3.30458,-0.58605 -5.76672,2.44528 -6.24047,4.08039 -2.42486,0.92868 -5.93831,-1.95322 -5.2804,2.40023 -1.74671,-0.53077 -2.49754,2.79032 -1.92014,4.80046 1.1489,1.64769 1.40833,5.5018 1.44011,6.00058 2.44694,-1.78998 3.9056,1.70985 4.80036,3.84037 4.59646,-0.32809 -1.01105,4.81869 -4.56035,2.88028 -18.19548,-0.32605 -41.66315,0.64768 -56.64426,-0.48005 1.10106,-3.4284 -5.13647,-0.69513 -6.24047,-3.60035 -2.73726,-0.75765 -4.71784,-0.44511 -6.00045,-2.40023 -2.635,-2.08697 -2.99666,-6.51672 -6.24047,-7.92076 1.07959,-5.66216 -6.03501,-4.10272 -7.44056,-6.72065 -3.7523,-1.56147 -4.53094,-5.68916 -7.20055,-7.92076 -1.58584,-1.85628 -3.94268,-2.23762 -2.64019,-4.56044 0.16152,-1.73633 0.80556,-2.47111 2.16016,-4.32041"
             id="path101-2" />
          <path
             style="fill:none;stroke:#6e6e6e;stroke-width:3;stroke-linecap:round;stroke-linejoin:round;stroke-miterlimit:10"
             clip-path="url(#SVG_CP_1-1)"
             d="m 192.25448,174.49678 c 0.60135,-1.66226 -0.54279,-2.89026 0.72005,-2.88028 -1.95142,-1.90739 1.01684,-1.73722 0.24002,-4.80046 -0.50982,0.36651 -0.0263,-2.71853 0.24002,-3.60035 -2.69619,-0.14035 -7.82562,-4.40022 -9.60072,0 -6.49277,-3.52033 4.48138,-13.31958 1.92014,-11.5211 3.11779,2.15029 9.90426,3.85917 7.68058,-3.84037 -2.12939,-7.83814 2.31897,-8.51258 8.88067,-7.44072 0.21079,-2.08728 -2.80858,-4.56427 2.6402,-3.84037 25.05091,-0.008 49.51815,0.0351 74.4056,0"
             id="path103-6" />
          <path
             style="fill:none;stroke:#6e6e6e;stroke-width:3;stroke-linecap:round;stroke-linejoin:round;stroke-miterlimit:10"
             clip-path="url(#SVG_CP_1-1)"
             d="m 326.42458,104.89009 c 10.36192,-0.40897 9.31202,16.19644 17.52132,11.04106 2.87648,-6.69837 12.75352,-4.70548 18.10561,-4.15732 3.43711,3.03273 0.83564,5.59784 3.01598,8.23771 -2.51969,2.91477 0.0744,7.17363 2.6402,7.68074 2.74754,1.50583 4.0037,1.58128 3.12024,4.08039 -0.0692,3.27804 -0.8346,4.22087 -2.6402,6.00058 -0.27493,2.93602 1.81086,2.13345 -0.24002,5.04048 0.32401,4.1565 -1.37721,2.18236 -2.88022,5.04049 -0.44169,2.39897 -2.48285,1.62451 -2.88022,3.84037 -2.45375,-0.4119 1.03866,3.51045 -2.64019,1.20011 2.41737,2.43818 -1.92021,5.34743 -2.40018,2.16021 -1.37,2.5087 -3.46808,1.09195 -4.32033,4.32041 1.38269,0.36129 -0.0446,5.33904 0.48004,7.2007 -0.51555,3.01949 1.59718,3.46002 4.32032,4.56044 2.81793,0.63113 3.54847,-1.01324 5.76044,0.24002 5.45572,-2.20403 8.06995,4.79113 13.68103,5.04048 1.02363,3.72419 6.65181,3.45024 3.60027,8.64083 0.0769,2.60116 9.08142,0.54469 12.72095,1.20012 4.09297,0.25364 9.54974,-0.72992 9.60073,3.60035 0.005,1.38391 0.30793,4.6035 0.48003,6.2406 -0.44762,2.73902 1.11802,5.33561 -0.72005,7.68073 2.67731,0.82181 0.41866,7.34316 3.36025,5.76056 2.79407,0.55183 0.86706,3.18294 -0.72005,4.08039 0.89299,2.49249 5.25966,2.20927 5.52041,6.00058 1.92375,-0.25014 4.85575,1.83493 0.48004,1.20011"
             id="path105-0" />
          <path
             style="fill:none;stroke:#6e6e6e;stroke-width:3;stroke-linecap:round;stroke-linejoin:round;stroke-miterlimit:10"
             clip-path="url(#SVG_CP_1-1)"
             d="m 411.39098,220.82123 c -41.1229,-0.3738 -82.434,-0.33603 -123.36929,-0.72007 -4.19004,0.41154 -0.20403,-3.42494 -2.40018,-4.80046 0.13849,-2.52857 5.84235,-5.75932 1.44011,-5.76055 -0.88562,-3.00276 -2.858,-5.16088 -5.52042,-3.84037 2.10495,-3.56143 -2.75564,-6.85075 -0.24002,-10.56102 2.96758,0.87468 0.65778,-5.4694 4.80037,-2.1602 3.56599,0.186 2.61346,-5.32725 7.44056,-4.32042 2.12915,-1.4478 1.23525,-8.7541 -2.16017,-6.96067 -1.71698,-0.40283 -2.03167,-5.03001 -3.84029,-6.72065 -2.86023,-2.23171 -1.35542,-6.22333 1.92015,-5.76055 1.29272,-2.40112 3.8193,-2.31568 1.92014,-5.28051 0.67092,-1.13739 9.51354,-0.1486 13.201,-0.48004 5.0757,1.11168 7.46308,-1.01222 6.24047,-6.2406 0.0345,-9.23191 -0.90396,-19.81705 0.24001,-28.32273 6.67106,0.5905 1.95925,-10.20188 3.36026,-14.88143 0.7266,-3.26679 -2.28169,-10.77937 3.60027,-8.16078 2.47614,-1.67332 5.6279,-2.25194 8.40063,-0.96009"
             id="path107-5" />
          <path
             style="fill:none;stroke:#6e6e6e;stroke-width:3;stroke-linecap:round;stroke-linejoin:round;stroke-miterlimit:10"
             clip-path="url(#SVG_CP_1-1)"
             d="m 306.98312,101.52976 c 6.63969,1.10765 8.59352,5.88655 7.44056,12.00116 -0.59964,4.84087 1.23871,12.11973 -0.96007,15.36147 -5.75626,-0.47577 -1.63942,8.92156 -2.88022,12.96125 -0.83019,6.92794 1.95337,16.33535 -0.96007,21.60208 -6.06459,-0.49591 -14.11528,0.99428 -18.96143,-0.72007 4.13452,-4.54097 -2.31275,-8.98709 -0.24002,-13.44129 0.53217,-5.36205 -9.57567,-3.94635 -9.12069,-8.40081 -0.63098,-2.9849 -2.10821,-5.05981 -4.56034,-6.96067 -1.63014,-2.05943 -1.73015,-5.25425 -4.80036,-4.56044 -2.77937,-2.22094 -0.3038,-4.77826 -0.72006,-6.48062 -0.9621,-1.90858 -1.00775,-5.94059 -1.4401,-11.28109 4.53048,-10.87189 16.60647,-4.55637 25.43138,-7.44071 3.98948,0.42427 7.89077,-3.18147 11.77142,-2.64026 z"
             id="path109-1" />
          <path
             style="fill:none;stroke:#6e6e6e;stroke-width:3;stroke-linecap:round;stroke-linejoin:round;stroke-miterlimit:10"
             clip-path="url(#SVG_CP_1-1)"
             d="m 190.81437,104.65006 c -0.24778,11.66458 14.87739,11.56731 23.04173,14.88143 8.43763,3.83743 15.29608,1.69211 23.03121,6.00058 7.89109,-4.01443 15.81553,-4.74764 23.42377,-9.24471 4.02864,0.59955 10.72455,-9.32292 9.46924,-0.59624 1.30855,3.84593 0.23406,6.36695 1.92014,8.40081 -3.26755,2.17141 0.59908,6.68979 3.12024,5.76056 0.20804,3.1494 3.06633,4.90376 4.32032,6.72064 -26.02472,0.33421 -52.23918,-0.63747 -78.00587,0.48005 4.98274,4.33335 -5.62315,4.29302 -7.68058,2.16021 1.19739,-7.07367 -1.26767,-11.0519 -3.60027,-14.16137 -3.10412,-0.84451 -4.51187,-4.92547 -7.9206,-5.76055 -0.93326,-4.53051 -7.50863,-4.5798 -5.52041,-12.4812 -2.42739,-9.467954 11.94531,-2.13583 15.36115,-5.76055 l -0.49202,1.84513 -0.46805,1.75521 z"
             id="path111-0" />
          <path
             style="fill:none;stroke:#6e6e6e;stroke-width:3;stroke-linecap:round;stroke-linejoin:round;stroke-miterlimit:10"
             clip-path="url(#SVG_CP_1-1)"
             d="m 387.62919,100.08962 c 1.03298,3.20314 4.72972,1.32978 5.2804,4.56044 3.4222,0.19376 3.36567,5.16426 6.7205,4.32042 2.53067,1.31509 3.36718,2.60562 3.84029,4.08039 -0.12722,1.72499 2.09442,2.98866 3.60027,1.68016 -0.73033,1.39336 0.6648,4.31103 3.12024,4.32042 0.0744,4.24709 1.06044,6.78503 4.80036,7.92076 -3.40448,0.70389 -0.50239,2.06596 -0.48003,4.32041 -1.39896,2.22367 -8.11406,-1.7479 -5.2804,2.40024 3.02026,2.49455 -2.08637,1.78889 -3.36026,-0.24003 -1.75552,1.56092 -4.15945,2.27754 -2.88021,4.08039 -2.20715,1.183 2.45451,2.73395 -1.68013,2.88028 2.90738,1.39059 1.36986,1.39721 0,2.64026 -2.17436,1.54605 -1.35665,1.29465 -1.92014,3.36032 -1.29301,1.07242 3.01501,0.88068 -0.24002,1.92018 -0.66687,2.25236 -1.5138,2.99307 -0.24002,5.28051 -1.0525,0.0929 0.91338,1.98367 -0.72005,2.88028 2.96133,2.21687 -0.28605,1.32863 -0.96008,1.44014 1.25658,2.75133 -1.54605,1.7052 0.72006,3.36032 -0.44608,2.21066 1.32484,2.0436 -1.20009,3.36032 1.23529,2.39485 0.80905,3.6745 2.88021,3.84037 -4.25371,0.93248 2.19068,3.11239 3.84029,3.60035 -0.0778,2.01044 -0.21161,2.30543 0.96008,3.60034 -2.1563,1.99608 3.11814,2.58158 1.4401,3.36033 -1.46413,0.85458 0.61725,7.15689 -1.92014,3.60034 -2.21695,0.85556 -3.88948,2.28156 -3.12024,3.84037 -6.28441,-0.67508 -15.8229,0.63892 -20.16151,-0.96009 1.572,-3.88386 0.46242,-5.89104 -3.12024,-7.44072 -0.74544,-3.44795 -5.3171,-2.02804 -6.96052,-4.80046"
             id="path113-8" />
          <path
             style="fill:none;stroke:#6e6e6e;stroke-width:3;stroke-linecap:round;stroke-linejoin:round;stroke-miterlimit:10"
             clip-path="url(#SVG_CP_1-1)"
             d="m 370.58791,173.29666 c -2.18888,-2.47028 -5.77525,-2.48961 -7.68058,-2.40023 -2.3679,-0.1641 -3.29289,0.88817 -6.48049,0 -2.7076,-1.31846 -3.59116,-2.553 -3.12023,-5.52053 -0.0299,-3.5094 0.27627,-5.23151 -0.24002,-6.2406 0.68347,-3.34657 3.08932,-1.52599 4.32032,-4.32041 0.9937,4.70477 3.82301,-1.03645 2.6402,-1.92019 2.99596,2.22811 -0.32947,-2.23308 2.88022,-1.68016 -0.0206,-2.06921 2.29148,-1.71249 3.12023,-4.80046 2.69876,0.46822 0.92543,-3.3464 2.6402,-5.52053 0.54884,-0.15537 -2.24072,-4.62474 1.68013,-5.04049 -0.23805,-1.97535 0.95186,-5.64983 0.48004,-6.48062 -3.0869,-1.26198 -5.5943,-2.38898 -6.72051,-5.52053 -0.19624,-2.56732 1.77603,-5.03638 -0.48004,-6.96067 2.01821,-2.22219 -3.11101,-4.81568 2.79039,-5.67073 5.73757,-5.29617 15.94487,-5.83333 21.21142,-11.13089"
             id="path115-2" />
          <path
             style="fill:none;stroke:#6e6e6e;stroke-width:3;stroke-linecap:round;stroke-linejoin:round;stroke-miterlimit:10"
             clip-path="url(#SVG_CP_1-1)"
             d="m 141.85068,94.32907 c 8.04521,0.595451 18.58585,-1.304533 24.96188,0.96009 0.18434,3.976002 3.81642,4.504275 7.68058,4.80046 5.06863,0.93192 -0.92577,12.92688 3.60027,14.40139 4.02821,2.625 5.09253,6.86486 9.84074,8.64083 1.36724,4.14487 6.60098,4.28556 5.52042,11.52111 0,6.32061 0,12.64121 0,18.96182 -4.61629,1.52161 -9.58751,-6.17934 -9.36071,1.92019 -5.55616,1.71585 -4.93487,-2.74576 -7.68057,-3.84037 -4.63374,0.95343 -4.21199,-3.14862 -7.20055,-3.84037 -1.18819,-2.65213 -3.01432,-4.66632 -7.68058,-3.84037 -4.27555,-0.12481 -3.29501,-5.5057 -9.3607,-3.84037 -9.20069,0 -18.40139,0 -27.60208,0 3.42561,-3.79983 3.1418,-10.04437 6.00045,-13.44129 5.03672,-0.0802 4.24188,-5.99195 9.59019,-5.76056 4.43163,-4.20222 -2.50268,-4.49304 -5.7499,-6.48062 -2.86344,-2.21804 -6.96712,-2.86974 -7.68058,-6.96067 -6.79631,-3.50208 4.63698,-4.58609 8.64065,-3.84037 3.25271,-1.69488 -2.64593,-11.709848 4.56035,-9.3609 l 1.90961,0 0.0105,0 z"
             id="path117-3" />
          <path
             style="fill:none;stroke:#6e6e6e;stroke-width:3;stroke-linecap:round;stroke-linejoin:round;stroke-miterlimit:10"
             clip-path="url(#SVG_CP_1-1)"
             d="m 95.28718,93.84902 c 7.63881,-0.419032 11.84293,2.264229 19.9215,0.9601 7.20022,0.875781 15.08275,-2.114897 21.12159,0.48004 -0.38129,4.133068 1.90733,10.5582 -4.80036,8.40081 -6.88514,-1.29399 -7.96989,2.43935 -4.32033,5.76055 3.33567,2.01322 5.63988,5.72872 11.04083,5.76056 6.1727,3.59918 1.11538,3.94335 -1.92014,7.68074 -1.62643,3.09397 -6.03994,3.40086 -7.68058,6.48062 -0.3737,6.2194 -4.9702,8.82741 -2.16016,13.92134 0.24511,8.35344 0.73781,18.0393 -0.24002,25.68247 -9.71292,0.2334 -20.36509,-0.71346 -29.28221,0.48004 0.539279,5.70131 -1.176894,13.65808 0.96007,17.76171 4.87149,-2.65189 6.89453,5.52619 1.68013,4.32042 -10.518721,-0.67428 -21.970946,0.7524 -30.96233,-0.9601 -0.40352,-7.07424 4.658944,-8.62111 4.32033,-16.08154 -2.269426,-3.37852 -1.229099,-7.86101 0.48003,-11.28109 1.610632,-6.06727 -5.662464,-5.93851 -3.60027,-12.24117 0.922019,-3.01508 6.279129,-6.28871 2.6402,-10.321 -3.195125,-3.67286 -0.13891,-12.57464 1.92014,-14.6414 -2.691438,-6.11046 1.765294,-10.80032 1.20009,-17.28166 2.804481,-6.89407 -7.65719,-7.58568 -4.56034,-14.88144 8.08061,0 16.16122,0 24.24183,0 z"
             id="path119-9" />
          <path
             style="fill:none;stroke:#6e6e6e;stroke-width:3;stroke-linecap:round;stroke-linejoin:round;stroke-miterlimit:10"
             clip-path="url(#SVG_CP_1-1)"
             d="m 448.35376,90.72872 c 0.4602,24.80409 -0.86107,48.05075 -0.72005,72.727 5.40317,0.43731 14.19647,-2.51551 11.52087,6.00057 -1.21012,5.20361 0.61316,6.39628 5.76043,5.52053 8.01255,-2.66747 5.4794,7.77001 5.04038,11.76114 -2.93193,0.98838 -5.41426,2.42636 -10.08076,1.68016 -18.63658,0.47669 -38.77668,-0.0148 -57.60434,-0.24003 -2.65359,-3.44291 -1.1232,-4.33376 1.68013,-5.52053 2.97157,3.78381 -0.32488,-3.87311 2.6402,-3.84037 -1.75082,-0.48506 -2.84663,-1.81563 -2.40018,-3.36032 -1.08547,-0.88104 -0.17991,-1.45005 -0.96007,-2.64025 0.41337,-2.16571 -5.89061,-1.37346 -5.04038,-4.0804 3.61836,-0.94421 -1.80798,0.39486 -0.24002,-2.1602 -2.7622,-1.76078 0.53169,-2.4639 0.48003,-3.84037 -1.69173,0.51887 0.0735,-3.50009 -1.68012,-2.40023 1.77971,-0.6184 -0.0679,-4.70257 2.16016,-1.68016 1.67012,-1.92351 -2.14544,-2.08656 0.24002,-4.0804 -1.47156,-0.47479 0.23958,-2.421 -1.20009,-3.36032 0.81464,-1.66833 1.68447,-3.51732 2.40018,-4.08039 -3.241,0.35723 0.90087,-1.99626 -0.96007,-3.1203 2.25712,-0.105 2.76481,-2.2701 3.84029,-2.40023 -4.69628,-1.3508 2.71032,-1.52002 -1.20009,-2.88028 2.48801,-1.87893 -1.04142,-2.83103 2.16016,-4.08039 1.82665,-3.44794 5.75019,3.8012 6.00045,-0.72007 -4.02597,-1.91482 0.51959,-3.18278 3.36025,-1.68016 4.32056,-2.32431 -4.10076,-4.07557 0.96008,-4.80046"
             id="path121-4" />
          <path
             style="fill:none;stroke:#6e6e6e;stroke-width:3;stroke-linecap:round;stroke-linejoin:round;stroke-miterlimit:10"
             clip-path="url(#SVG_CP_1-1)"
             d="m 414.51122,127.45226 c 0.54781,-0.84986 -2.93128,-1.94159 -3.60028,-3.36033 -0.43699,-2.06593 -0.0117,-6.01949 -3.36025,-6.2406 -1.06398,-2.55604 0.38262,-4.28378 -2.88022,-2.16021 -1.2903,-2.35895 -0.96071,-2.84592 -2.16016,-4.32041 0.0285,-1.75844 -4.42904,-2.3994 -5.52041,-3.36032 -1.61274,-2.80511 -4.64846,-3.50931 -6.24047,-6.00058 -6.40046,0.74169 0.17968,-6.767623 4.4029,-2.625847 8.08343,12.124157 22.28512,1.885737 33.51995,2.145797 3.39353,-7.949605 14.67447,-7.820125 19.68148,-10.80104"
             id="path123-2" />
          <path
             style="fill:none;stroke:#6e6e6e;stroke-width:3;stroke-linecap:round;stroke-linejoin:round;stroke-miterlimit:10"
             clip-path="url(#SVG_CP_1-1)"
             d="m 657.40951,83.52803 c -1.43354,4.05604 2.49007,12.828842 -3.84029,11.76113 0.21441,4.586037 -1.00381,10.6047 1.92014,12.4812 0.64938,2.79094 2.70005,4.18059 2.16016,8.16079 4.16177,1.27873 -1.30462,12.18563 2.88022,13.44129 6.51881,-1.07832 -0.89884,11.77982 4.56034,11.76113 0.0462,3.63415 -0.74218,8.10287 1.92015,9.12088 -0.99813,5.07848 7.75633,0.40437 6.00045,6.2406 1.92982,1.11044 3.97517,2.10536 3.36025,5.76055 4.93668,-0.98061 -1.72374,10.74105 6.00046,7.44072 -1.98436,6.30472 2.36287,6.27785 7.20054,5.76055 4.5526,1.12786 14.65007,-3.28915 12.48094,4.56044 1.25123,6.04813 -1.54752,8.04628 -7.67005,6.72065 -6.44479,0.46076 -14.18229,-0.30237 -19.93203,0.72006 0.0479,5.83372 1.61833,13.32249 -6.72051,10.80104 -4.18593,-0.85445 -11.76387,1.68311 -13.92104,-1.20011 1.06006,-2.18954 -1.90848,-1.97559 -1.2001,-3.60035 -1.53417,-1.03695 -0.55079,0.76791 -2.16016,0.24002 -2.06403,-3.40418 -1.53987,-4.22449 -4.56034,-4.32041 -1.28073,-1.15928 -2.56982,4.34664 -5.2804,5.76055 -3.33382,4.44474 -10.26943,2.80667 -14.40108,-1.20011 -1.27376,-5.07189 -5.90043,-1.53907 -7.44056,1.44014 -5.8647,-1.55698 -4.05587,3.16025 -6.24047,5.52053 -1.77807,4.38518 -5.02669,0.3183 -6.48049,1.44014 -1.45451,-2.14805 -3.54622,-1.75125 -5.76044,-3.84037 -2.01687,2.04518 -3.51839,1.76977 -6.48048,3.60034"
             id="path125-3" />
          <path
             style="fill:none;stroke:#6e6e6e;stroke-width:3;stroke-linecap:round;stroke-linejoin:round;stroke-miterlimit:10"
             clip-path="url(#SVG_CP_1-1)"
             d="m 593.80472,202.09943 c -1.16584,-0.38679 -4.3e-4,-4.7497 -3.12024,-3.36032 -2.31455,-1.03222 -6.85438,-0.37694 -5.04038,-5.52053 0.1216,-3.32189 0.68562,-7.0862 -2.6402,-6.96067 -0.66012,-4.62038 1.31155,-11.87255 -0.96007,-14.88143 -5.11904,0.23863 -11.04722,1.28641 -9.12069,-5.52053 0.0136,-4.01394 -6.2755,-1.72522 -3.84028,-8.16079 -1.56928,-4.95264 1.63715,-7.2316 5.04037,-5.04048 3.81705,0.54006 2.47115,-3.68473 7.20055,-1.92019 4.8275,-0.92492 14.86198,2.82178 12.72095,-5.04048 -0.78766,-3.4279 0.58408,-4.6964 2.16017,-5.76055 1.89446,-2.19999 4.80326,2.62679 9.3607,0.96009 5.84741,0.37927 11.46197,1.40067 10.32078,-5.52053 6.02568,1.4646 8.8309,-1.29789 6.96052,-6.96067 0.48228,-7.00712 -0.64577,-16.77159 0.96008,-22.08213 8.14561,2.30509 0.39668,-11.284363 5.76043,-11.76113 -1.55849,-5.558826 2.1283,-5.872371 6.72051,-5.2805 -1.28865,-5.288995 1.28257,-6.718115 6.24047,-5.76056 4.96037,0 9.92075,0 14.88112,0"
             id="path127-8" />
          <path
             style="fill:none;stroke:#6e6e6e;stroke-width:3;stroke-linecap:round;stroke-linejoin:round;stroke-miterlimit:10"
             clip-path="url(#SVG_CP_1-1)"
             d="m 492.27707,77.04741 c 5.89296,-0.700686 10.22693,-2.576749 8.64065,5.04048 -0.23268,11.287082 -0.7273,24.88042 0.24002,35.76344 5.30307,0.61739 13.09036,-1.24945 16.80127,0.96009 0.49207,4.62839 -2.32561,12.56653 4.80036,10.56102 4.93477,-1.25445 5.51622,1.84442 4.80036,6.2406 -0.20483,16.849 0.21081,34.81826 -0.72006,50.88489 -3.06357,2.77695 2.67065,14.35169 -6.24047,11.28109 -16.96937,0.0505 -36.28617,0.84459 -53.04399,-0.24003 0.74635,-3.97409 -2.14406,-11.58492 2.88022,-11.28108 -0.45358,-4.9952 2.41819,-13.59119 -5.52042,-11.28109 -5.52657,1.08111 -6.81102,-0.72072 -5.76043,-6.00057 2.24583,-7.12624 -4.26287,-5.49794 -9.12069,-5.52053 -5.01662,-0.34388 -1.23137,-9.48963 -2.40018,-13.68132 0.50511,-19.95389 0.94693,-39.36512 0.72005,-59.76574 9.60145,-3.826562 20.1845,-4.596445 30.4823,-6.00058 3.07045,-4.736328 6.86365,-12.755949 13.44101,-6.96067 z"
             id="path129-3" />
          <path
             style="fill:none;stroke:#6e6e6e;stroke-width:3;stroke-linecap:round;stroke-linejoin:round;stroke-miterlimit:10"
             clip-path="url(#SVG_CP_1-1)"
             d="m 636.0479,64.80623 c 32.16538,0.292856 63.10419,0.282774 95.04716,0.48005 5.13168,-0.592633 4.70774,3.766184 6.7205,5.28051 0.61343,4.260654 2.37263,8.728874 6.24047,11.04106 3.02648,2.429333 1.48559,9.418121 6.48049,6.96067 6.0957,-2.896789 5.03017,8.527679 10.80081,5.2805 3.73916,0.524426 7.45462,3.02528 8.40064,7.44072 -1.63887,3.7933 2.65952,8.33296 4.56034,10.80104 1.2989,2.28022 3.52485,5.93472 0.24002,8.40081 -0.26613,2.2534 -4.41751,3.24712 -4.08031,5.52053 -1.52911,3.66519 -3.386,5.74561 -2.6402,9.3609 -0.83682,1.95933 -4.12911,4.3286 -3.84029,7.68074 -3.13166,3.32024 -5.76402,8.23067 -6.96052,13.44129 0.61629,6.19886 -4.20929,8.03555 -3.36026,14.40138 -0.76748,1.22736 -0.63747,2.41979 -1.4401,3.60035"
             id="path131-4" />
          <path
             style="fill:none;stroke:#6e6e6e;stroke-width:3;stroke-linecap:round;stroke-linejoin:round;stroke-miterlimit:10"
             clip-path="url(#SVG_CP_1-1)"
             d="m 752.21665,174.49678 c 0.2023,6.01151 -3.65266,6.92869 -5.52042,11.04106 -0.68366,3.39665 -7.69222,0.46842 -10.80081,1.44014 -11.30128,0.007 -22.49874,-0.42672 -33.84255,-0.24002 -0.85801,-4.50247 2.88672,-13.60768 -4.80036,-11.28109 -4.96037,0 -9.92075,0 -14.88112,0 2.83418,-7.23457 -5.27084,-3.52995 -4.08031,-9.12088 1.31912,-4.90321 -3.01237,-3.24444 -1.92015,-7.92076 -2.93977,-0.34051 -3.67442,-2.88615 -4.32032,-5.52053 -3.83001,0.78975 -5.6036,-0.47691 -5.52042,-3.60034 -3.75638,-0.32399 0.9771,-9.13784 -3.36025,-8.88086 -0.92569,-4.11477 2.7574,-12.83831 -4.08031,-11.04106 -0.39412,-5.1264 1.2017,-12.24274 -1.68012,-14.88143 1.32663,-4.68695 -3.02078,-3.69984 -1.92015,-8.16079 -3.74334,-0.15528 -1.58889,-8.842037 -1.44011,-11.28108 5.65183,1.225059 2.39275,-8.890328 2.88022,-11.52111 -6.89733,-0.383222 -15.40327,0.842159 -21.12159,-0.72007 0.15769,-5.91306 -0.31659,-12.491634 0.24002,-18.00173"
             id="path133-5" />
          <path
             style="fill:none;stroke:#6e6e6e;stroke-width:3;stroke-linecap:round;stroke-linejoin:round;stroke-miterlimit:10"
             clip-path="url(#SVG_CP_1-1)"
             d="m 582.52387,64.80623 c 17.68579,0.155558 36.01232,-0.329634 53.28401,0.24002 -0.49071,8.249455 0.76293,17.323829 0,24.24234 -4.95789,-0.957551 -7.52912,0.471556 -6.24047,5.76055 -5.42261,0.577921 2.57268,14.57374 -6.72051,11.28108 0.34246,9.57004 0.23924,20.46192 -0.24001,29.0428 -5.71139,-1.23101 -8.13505,0.8257 -7.68058,5.76055 -6.48908,-0.47146 -14.51927,0.59819 -18.72141,-2.16021 -1.05501,2.38531 -3.22973,3.65091 -2.16017,8.16079 0.91368,6.33847 -8.91003,2.4862 -13.20099,3.60034 -4.72914,-1.69725 -3.08612,3.33595 -7.9206,1.92019 -2.19628,-2.48587 -5.40629,0.50285 -3.84028,4.08039 -0.74387,4.5042 0.16585,7.35482 3.84028,7.44072 -0.58202,4.9824 -0.26016,9.06093 6.00046,7.20069 7.84523,-1.36464 2.53647,10.42471 4.0803,15.36148 5.08661,-0.9443 2.07277,8.62373 2.16017,11.04106 -19.62401,-0.72733 -40.43064,0.60094 -59.28447,-0.48005 -0.22688,-5.10734 -0.12948,-9.8904 1.44011,-13.20127 -0.46392,-18.13558 1.05855,-37.38036 -0.24002,-54.72526 -4.23343,-0.40695 -11.32023,2.03947 -9.12068,-4.80046 -0.28037,-4.75003 1.7773,-7.9066 -4.80037,-6.72065"
             id="path135-3" />
          <path
             style="fill:none;stroke:#6e6e6e;stroke-width:3;stroke-linecap:round;stroke-linejoin:round;stroke-miterlimit:10"
             clip-path="url(#SVG_CP_1-1)"
             d="m 513.15864,117.85133 c -5.0394,-0.88108 -14.92239,3.08142 -12.48094,-5.28051 -0.0122,-12.33337 -0.0658,-24.708156 0.24002,-36.72353 8.3818,-0.924639 16.09445,-4.242949 24.48185,-1.20011 10.00094,-0.06644 14.40463,-11.819811 24.24182,-9.84095 10.96083,0 21.92165,0 32.88248,0"
             id="path137-9" />
          <path
             style="fill:none;stroke:#6e6e6e;stroke-width:3;stroke-linecap:round;stroke-linejoin:round;stroke-miterlimit:10"
             clip-path="url(#SVG_CP_1-1)"
             d="m 158.65195,40.08385 c 7.39386,6.275187 18.03037,10.012629 22.19355,18.678519 4.76442,7.430639 6.37084,15.542522 8.76878,23.805571 -4.16706,6.795468 7.98791,18.25233 -1.66959,19.44187 -5.12953,0.006 -10.99919,0.75136 -13.45155,-1.92019 -3.86416,-0.296185 -7.49624,-0.824458 -7.68058,-4.80046 -6.98502,-2.295679 -18.23544,-0.325969 -26.88202,-0.96009 -7.63978,1.353836 -1.78171,-10.523222 -3.60027,-15.36148 0.52183,-11.849618 -0.99354,-22.416866 -0.24002,-33.84325 8.79259,3.773302 14.21601,-7.426478 22.5617,-5.04049 z"
             id="path139-4" />
          <path
             style="fill:none;stroke:#6e6e6e;stroke-width:3;stroke-linecap:round;stroke-linejoin:round;stroke-miterlimit:10"
             clip-path="url(#SVG_CP_1-1)"
             d="m 76.80578,27.60265 c 7.995067,12.288323 19.878333,-1.9806 29.04219,3.84037 8.04547,0.388168 21.43705,-7.435256 24.48184,4.0804 -3.1545,8.603529 9.00053,8.031391 5.52042,16.310985 0.38761,13.567852 0.87219,28.287229 0.24002,42.494665 -10.94675,-0.355791 -23.14811,1.595866 -33.1225,0.24002 -8.850784,-2.016834 -23.176503,0.410185 -31.68238,-1.20011 0.0079,-4.367686 1.420693,-6.314971 0.48003,-11.04106 0.81161,-3.981777 -6.446259,-9.072489 -1.4401,-13.68132 4.604745,-2.881913 8.89174,-7.303165 5.28039,-16.56159 -1.811499,-5.848019 -4.083919,-12.663555 -9.12068,-12.96125 -1.617378,-1.791057 -8.1276,-10.534932 0.72005,-7.68074 8.669895,2.501473 4.409568,-9.546982 9.60072,-3.84037 z"
             id="path141-3" />
        </g>
      </g>
      <g
         id="Other">
        <path
           style="fill:#000000;fill-rule:evenodd;stroke:none"
           clip-path="url(#SVG_CP_1-1)"
           d="m 24.00181,18.7218 c 10.040195,-0.431516 -3.070845,-9.8282743 -7.20054,-1.92018 4.625589,-0.66567 7.827279,15.201308 7.20054,1.92018 z"
           id="path144" />
        <path
           style="fill:#000000;fill-rule:evenodd;stroke:none"
           clip-path="url(#SVG_CP_1-1)"
           d="m 767.5778,574.85527 c 9.40635,-0.53961 -3.02638,-10.19502 -7.20054,-1.92018 4.1562,-0.4003 8.0755,14.43816 7.20054,1.92018 z"
           id="path146" />
      </g>
    </g>
  </g>
</svg>
